<svg width="192" height="203" viewBox="0 0 192 203" fill="none" xmlns="http://www.w3.org/2000/svg">
<path d="M100.731 203V202.796H96.3154V202.592H93.3662V202.388H91.2686V202.184H89.8019V201.98H88.1143V201.776H86.6476V201.572H85.3859V201.368H84.3292V201.164H83.0675V200.96H82.0108V200.756H80.9699V200.552H80.1183V200.348H79.2824V200.144H78.4465V199.94H77.3898V199.736H76.554V199.532H75.9231V199.329H75.0715V199.125H74.4406V198.921H73.6047V198.717H72.9739V198.513H72.138V198.309H71.5071V198.105H71.0813V197.901H70.4505V197.697H69.8196V197.493H69.1888V197.289H68.5579V197.085H67.9271V196.881H67.2962V196.677H66.6654V196.473H66.2395V196.269H65.6087V196.065H65.1986V195.861H64.5678V195.657H64.1419V195.453H63.5111V195.249H63.0853V195.045H62.4544V194.841H62.0444V194.637H61.6185V194.433H61.1927V194.229H60.7827V194.025H60.1518V193.821H59.726V193.617H59.3001V193.413H58.8901V193.209H58.4643V193.005H58.0384V192.801H57.6284V192.597H57.2026V192.393H56.7767V192.189H56.3667V191.985H55.9409V191.782H55.515V191.578H55.105V191.374H54.6791V191.17H54.2533V190.966H53.8433V190.762H53.4174V190.558H53.2124V190.354H52.7866V190.15H52.3608V189.946H51.9507V189.742H51.7299V189.538H51.3199V189.334H50.894V189.13H50.4682V188.926H50.2632V188.722H49.8374V188.518H49.4273V188.314H49.2065V188.11H48.7965V187.906H48.5757V187.702H48.1656V187.498H47.7398V187.294H47.5347V187.09H47.1089V186.886H46.9039V186.682H46.4781V186.478H46.273V186.274H45.8472V186.07H45.6422V185.866H45.2164V185.662H45.0113V185.458H44.5855V185.254H44.3805V185.05H43.9547V184.846H43.7496V184.642H43.5288V184.439H43.1188V184.235H42.898V184.031H42.4879V183.827H42.2671V183.623H42.0621V183.419H41.6363V183.215H41.4312V183.011H41.2262V182.807H40.8004V182.603H40.5954V182.399H40.3746V182.195H39.9645V181.991H39.7437V181.787H39.5387V181.583H39.3337V181.379H38.9078V181.175H38.7028V180.971H38.482V180.767H38.277V180.563H37.8512V180.359H37.6461V180.155H37.4411V179.951H37.2203V179.747H37.0153V179.543H36.5895V179.339H36.3844V179.135H36.1794V178.931H35.9586V178.727H35.7536V178.523H35.5485V178.319H35.1227V178.115H34.9177V177.911H34.6969V177.707H34.4919V177.503H34.2868V177.299H34.066V177.095H33.861V176.892H33.4352V176.688H33.2302V176.484H33.0251V176.28H32.8043V176.076H32.5993V175.872H32.3943V175.668H32.1735V175.464H31.9685V175.26H31.7634V175.056H31.5426V174.852H31.3376V174.648H31.1326V174.444H30.9118V174.24H30.7068V174.036H30.5017V173.832H30.2809V173.628H30.0759V173.424H29.8709V173.22H29.6501V173.016H29.445V172.812H29.24V172.608H29.0192V172.404H28.8142V172.2H28.6092V171.996H28.3884V171.792H28.1833V171.588H27.9783V171.384H27.7575V171.18H27.5525V170.976H27.3475V170.772H27.1267V170.568H26.9216V170.145H26.7166V169.941H26.4958V169.737H26.2908V169.533H26.0858V169.329H25.865V169.125H25.6599V168.921H25.4549V168.497H25.2341V168.293H25.0291V168.089H24.8241V167.885H24.6033V167.681H24.3982V167.477H24.1932V167.054H23.9724V166.85H23.7674V166.646H23.5623V166.442H23.3415V166.238H23.1365V165.814H22.9315V165.61H22.7107V165.406H22.5057V165.202H22.3006V164.779H22.0798V164.575H21.8748V164.371H21.6698V164.167H21.449V163.743H21.244V163.539H21.0389V163.335H20.8181V162.912H20.6131V162.708H20.4081V162.504H20.1873V162.08H19.9823V161.876H19.7772V161.672H19.5564V161.248H19.3514V161.044H19.1464V160.621H18.9256V160.417H18.7206V159.993H18.5155V159.789H18.2947V159.585H18.0897V159.162H17.8847V158.958H17.6639V158.534H17.4588V158.33H17.2538V157.906H17.033V157.702H16.828V157.279H16.623V157.075H16.4022V156.651H16.1971V156.227H15.9921V156.024H15.7713V155.6H15.5663V155.396H15.3613V154.972H15.1405V154.768H14.9354V154.345H14.7304V153.921H14.5096V153.717H14.3046V153.293H14.0996V152.87H13.8788V152.446H13.6737V152.242H13.4687V151.819H13.2479V151.395H13.0429V150.971H12.8379V150.767H12.6171V150.344H12.412V149.92H12.207V149.496H11.9862V149.073H11.7812V148.649H11.5761V148.225H11.3553V147.802H11.1503V147.378H10.9453V146.955H10.7245V146.531H10.5195V146.107H10.3144V145.684H10.0936V145.26H9.88862V144.836H9.68359V144.413H9.46279V143.989H9.25776V143.362H9.05273V142.938H8.83194V142.514H8.62691V142.091H8.42188V141.667H8.20108V141.039H7.99606V140.616H7.79103V139.988H7.57023V139.564H7.3652V138.937H7.16018V138.513H6.93938V137.886H6.73435V137.258H6.52932V136.834H6.30853V136.207H6.1035V135.579H5.89847V134.952H5.67767V134.324H5.47265V133.696H5.26762V133.069H5.04682V132.441H4.84179V132.018H4.63677V131.186H4.41597V130.558H4.21094V129.727H4.00591V128.895H3.78512V128.268H3.58009V127.436H3.37506V126.808H3.15426V125.757H2.94924V124.926H2.74421V124.094H2.52341V123.043H2.31838V122.211H2.11336V121.16H1.89256V119.905H1.68753V118.649H1.4825V117.598H1.26171V116.139H1.05668V114.46H0.851651V112.781H0.630853V110.694H0.425826V107.98H0.220798V103.163H0V99.6015H0.220798V95.0043H0.425826V92.2899H0.630853V89.9834H0.851651V88.3045H1.05668V86.8454H1.26171V85.3862H1.4825V84.1309H1.68753V82.8757H1.89256V81.8245H2.11336V80.5693H2.31838V79.7377H2.52341V78.9061H2.74421V77.8549H2.94924V77.0233H3.15426V76.1917H3.37506V75.3601H3.58009V74.7325H3.78512V73.9009H4.00591V73.2733H4.21094V72.4417H4.41597V71.6102H4.63677V70.9825H4.84179V70.3549H5.04682V69.7273H5.26762V69.0997H5.47265V68.4721H5.67767V67.8445H5.89847V67.2169H6.1035V66.5893H6.30853V66.1656H6.52932V65.538H6.73435V65.1144H6.93938V64.4868H7.16018V63.8592H7.3652V63.4355H7.57023V62.8079H7.79103V62.3843H7.99606V61.7567H8.20108V61.3331H8.42188V60.9094H8.62691V60.4858H8.83194V59.8582H9.05273V59.4345H9.25776V59.0109H9.46279V58.5873H9.68359V58.1636H9.88862V57.536H10.0936V57.1124H10.3144V56.6888H10.5195V56.2651H10.7245V55.8415H10.9453V55.4178H11.1503V54.9942H11.3553V54.5706H11.5761V54.1469H11.7812V53.7233H11.9862V53.5193H12.207V53.0957H12.412V52.6721H12.6171V52.2484H12.8379V51.8248H13.0429V51.4011H13.2479V51.1972H13.4687V50.7735H13.6737V50.3499H13.8788V49.9263H14.0996V49.7223H14.3046V49.2987H14.5096V48.875H14.7304V48.6711H14.9354V48.2474H15.1405V47.8238H15.3613V47.6198H15.5663V47.1962H15.7713V46.9922H15.9921V46.5686H16.1971V46.1449H16.4022V45.941H16.623V45.5173H16.828V45.3133H17.033V44.8897H17.2538V44.6857H17.4588V44.2621H17.6639V44.0581H17.8847V43.6345H18.0897V43.4305H18.2947V43.0069H18.5155V42.8029H18.7206V42.5989H18.9256V42.1753H19.1464V41.9713H19.3514V41.5477H19.5564V41.3437H19.7772V41.1397H19.9823V40.7161H20.1873V40.5121H20.4081V40.0885H20.6131V39.8845H20.8181V39.6806H21.0389V39.4766H21.244V39.0529H21.449V38.849H21.6698V38.645H21.8748V38.2214H22.0798V38.0174H22.3006V37.8134H22.5057V37.6094H22.7107V37.1858H22.9315V36.9818H23.1365V36.7779H23.3415V36.5739H23.5623V36.1503H23.7674V35.9463H23.9724V35.7423H24.1932V35.5383H24.3982V35.3344H24.6033V35.1304H24.8241V34.7068H25.0291V34.5028H25.2341V34.2988H25.4549V34.0948H25.6599V33.8909H25.865V33.6869H26.0858V33.2633H26.2908V33.0593H26.4958V32.8553H26.7166V32.6513H26.9216V32.4474H27.1267V32.2434H27.3475V32.0394H27.5525V31.8354H27.7575V31.6315H27.9783V31.4275H28.1833V31.2235H28.3884V31.0196H28.6092V30.8156H28.8142V30.6116H29.0192V30.188H29.24V29.984H29.445V29.78H29.6501V29.5761H29.8709V29.3721H30.0759V29.1681H30.2809V28.9641H30.5017V28.7602H30.7068V28.5562H30.9118V28.3522H31.1326V28.1482H31.5426V27.9443H31.7634V27.7403H31.9685V27.5363H32.1735V27.3324H32.3943V27.1284H32.5993V26.9244H32.8043V26.7204H33.0251V26.5165H33.2302V26.3125H33.4352V26.1085H33.656V25.9045H33.861V25.7006H34.066V25.4966H34.2868V25.2926H34.6969V25.0887H34.9177V24.8847H35.1227V24.6807H35.3277V24.4767H35.5485V24.2728H35.7536V24.0688H35.9586V23.8648H36.3844V23.6608H36.5895V23.4569H36.8102V23.2529H37.0153V23.0489H37.2203V22.845H37.4411V22.641H37.8512V22.437H38.072V22.233H38.277V22.0291H38.7028V21.8251H38.9078V21.6211H39.1129V21.4171H39.3337V21.2132H39.7437V21.0092H39.9645V20.8052H40.1695V20.6013H40.3746V20.3973H40.8004V20.1933H41.0054V19.9893H41.2262V19.7854H41.6363V19.5814H41.8571V19.3774H42.0621V19.1734H42.4879V18.9695H42.693V18.7655H43.1188V18.5615H43.3238V18.3576H43.5288V18.1536H43.9547V17.9496H44.1597V17.7456H44.5855V17.5417H44.7905V17.3377H45.0113V17.1337H45.4214V16.9297H45.6422V16.7258H46.0522V16.5218H46.273V16.3178H46.6831V16.1139H47.1089V15.9099H47.3139V15.7059H47.7398V15.5019H47.9448V15.298H48.3706V15.094H48.5757V14.89H49.0015V14.686H49.4273V14.4821H49.6323V14.2781H50.0582V14.0741H50.4682V13.8702H50.689V13.6662H51.0991V13.4622H51.5249V13.2582H51.9507V13.0543H52.1557V12.8503H52.5816V12.6463H52.9916V12.4423H53.2124V12.2384H53.6225V12.0344H54.0483V11.8304H54.4741V11.6265H54.8842V11.4225H55.31V11.2185H55.7358V11.0145H56.1459V10.8106H56.5717V10.6066H56.9975V10.4026H57.4076V10.1986H57.8334V9.99467H58.2592V9.7907H58.6693V9.58672H59.0951V9.38275H59.5209V9.17878H59.931V8.9748H60.5619V8.77083H60.9877V8.56686H61.4135V8.36289H61.8236V8.15891H62.2494V7.95494H62.8802V7.75097H63.3061V7.54699H63.9369V7.34302H64.347V7.13905H64.9778V6.93508H65.4036V6.7311H66.0345V6.52713H66.4603V6.32316H67.0912V6.11918H67.5012V5.91521H68.1321V5.71124H68.7629V5.50727H69.3938V5.30329H70.0246V5.09932H70.6555V4.89535H71.2863V4.69138H71.9172V4.4874H72.548V4.28343H73.3997V4.07946H74.0306V3.87548H74.8664V3.67151H75.4973V3.46754H76.3332V3.26356H76.964V3.05959H77.8157V2.85562H78.8566V2.65165H79.7082V2.44767H80.5441V2.2437H81.6008V2.03973H82.4367V1.83576H83.6984V1.63178H84.9601V1.42781H86.0168V1.22384H87.2785V1.01986H88.9502V0.815891H90.6378V0.611918H92.1045V0.407946H94.8487V0.203973H97.7822V0H107.466V0.203973H110.825V0.407946H112.923V0.611918H115.036V0.815891H116.929V1.01986H118.19V1.22384H119.452V1.42781H120.714V1.63178H121.975V1.83576H123.016V2.03973H124.073V2.2437H124.909V2.44767H125.76V2.65165H126.596V2.85562H127.653V3.05959H128.489V3.26356H129.325V3.46754H130.176V3.67151H130.807V3.87548H131.438V4.07946H132.274V4.28343H132.905V4.4874H133.536V4.69138H134.167V4.89535H135.002V5.09932H135.633V5.30329H136.264V5.50727H136.69V5.71124H137.321V5.91521H137.952V6.11918H138.378V6.32316H139.008V6.52713H139.639V6.7311H140.049V6.93508H140.68V7.13905H141.311V7.34302H141.737V7.54699H142.368V7.75097H142.793V7.95494H143.204V8.15891H143.629V8.36289H144.26V8.56686H144.686V8.77083H145.096V8.9748H145.522V9.17878H146.153V9.38275H146.579V9.58672H146.989V9.7907H147.414V9.99467H147.84V10.1986H148.25V10.4026H148.676V10.6066H149.102V10.8106H149.512V11.0145H149.938V11.2185H150.364V11.4225H150.774V11.6265H151.2V11.8304H151.405V12.0344H151.83V12.2384H152.256V12.4423H152.666V12.6463H153.092V12.8503H153.518V13.0543H153.928V13.2582H154.149V13.4622H154.559V13.6662H154.985V13.8702H155.19V14.0741H155.616V14.2781H156.041V14.4821H156.246V14.686H156.672V14.89H156.877V15.094H157.303V15.298H157.713V15.5019H157.934V15.7059H158.344V15.9099H158.77V16.1139H158.975V16.3178H159.401V16.5218H159.606V16.7258H160.032V16.9297H160.237V17.1337H160.662V17.3377H160.867V17.5417H161.088V17.7456H161.498V17.9496H161.719V18.1536H162.129V18.3576H162.35V18.5615H162.76V18.7655H162.981V18.9695H163.186V19.1734H163.612V19.3774H163.817V19.5814H164.242V19.7854H164.448V19.9893H164.653V20.1933H165.078V20.3973H165.283V20.6013H165.504V20.8052H165.914V21.0092H166.135V21.2132H166.34V21.4171H166.545V21.6211H166.766V21.8251H167.176V22.0291H167.397V22.233H167.602V22.437H167.807V22.641H168.233V22.845H168.438V23.0489H168.658V23.2529H168.863V23.4569H169.289V23.6608H169.494V23.8648H169.699V24.0688H169.92V24.2728H170.33V24.4767H170.551V24.6807H170.756V24.8847H170.961V25.0887H171.182V25.2926H171.387V25.4966H171.592V25.7006H171.813V25.9045H172.018V26.1085H172.223V26.3125H172.444V26.5165H172.854V26.7204H173.074V26.9244H173.279V27.1284H173.484V27.3324H173.705V27.5363H173.91V27.7403H174.115V27.9443H174.336V28.1482H174.541V28.3522H174.746V28.5562H174.967V28.7602H175.172V28.9641H175.377V29.1681H175.598V29.3721H175.803V29.5761H176.008V29.78H176.229V29.984H176.434V30.188H176.639V30.3919H176.86V30.5959H177.065V30.7999H177.27V31.0039H177.49V31.2078H177.695V31.4118H177.9V31.6158H178.121V31.8198H178.326V32.0237H178.531V32.2277H178.752V32.4317H178.957V32.6357H179.162V33.0593H179.383V33.2633H179.588V33.4672H179.793V33.6712H180.014V33.8752H180.219V34.0792H180.424V34.2831H180.645V34.7068H180.85V34.9107H181.055V35.1147H181.276V35.3187H181.481V35.5227H181.686V35.9463H181.906V36.1503H182.111V36.3542H182.316V36.5582H182.537V36.7622H182.742V37.1858H182.947V37.3898H183.168V37.5938H183.373V37.7977H183.578V38.0017H183.799V38.4253H184.004V38.6293H184.209V38.8333H184.43V39.2569H184.635V39.4609H184.84V39.6649H185.061V40.0885H185.266V40.2925H185.471V40.4964H185.691V40.9201H185.896V41.1241H186.102V41.5477H186.322V41.7517H186.527V41.9556H186.732V42.3793H186.953V42.5832H187.158V42.7872H187.363V43.2109H187.584V43.4148H187.789V43.6188H187.994V44.0424H188.215V44.4661H188.42V44.67H188.625V45.0937H188.846V45.2977H189.051V45.7213H189.256V45.9253H189.477V46.3489H189.682V46.5529H189.887V46.9765H190.107V47.1805H190.312V47.6041H190.518V47.8081H190.738V48.2317H190.943V48.6554H191.148V48.8593H191.369V49.283H191.574V49.7066H191.779V50.5382H192V52.421H191.779V53.0486H191.574V53.4723H191.369V53.8959H191.148V54.0999H190.943V54.3038H190.738V54.5078H190.518V54.9314H190.107V55.1354H189.887V55.3394H189.256V55.5434H188.42V55.7473H187.789V55.5434H186.322V55.3394H185.896V55.1354H185.471V54.9314H185.061V54.7275H184.84V54.5235H184.635V54.3195H184.43V54.1156H184.209V53.9116H184.004V53.4879H183.799V53.0643H183.578V52.8603H183.373V52.4367H183.168V52.0131H182.947V51.8091H182.742V51.3855H182.537V51.1815H182.316V50.7579H182.111V50.5539H181.906V50.1302H181.686V49.9263H181.481V49.5026H181.276V49.2987H181.055V48.875H180.85V48.6711H180.645V48.2474H180.424V48.0434H180.219V47.6198H180.014V47.4158H179.793V47.2119H179.588V46.7882H179.383V46.5843H179.162V46.3803H178.957V45.9566H178.752V45.7527H178.531V45.5487H178.326V45.1251H178.121V44.9211H177.9V44.4975H177.695V44.2935H177.49V44.0895H177.27V43.6659H177.065V43.4619H176.86V43.2579H176.639V43.054H176.434V42.85H176.229V42.4263H176.008V42.2224H175.803V42.0184H175.598V41.8144H175.377V41.6105H175.172V41.1868H174.967V40.9828H174.746V40.7789H174.541V40.5749H174.336V40.3709H174.115V39.9473H173.91V39.7433H173.705V39.5393H173.484V39.3354H173.279V39.1314H173.074V38.9274H172.854V38.7235H172.649V38.5195H172.444V38.0958H172.223V37.8919H172.018V37.6879H171.813V37.4839H171.592V37.28H171.387V37.076H171.182V36.872H170.961V36.668H170.756V36.4641H170.551V36.2601H170.33V36.0561H170.125V35.8521H169.92V35.6482H169.699V35.4442H169.494V35.2402H169.289V35.0363H169.069V34.8323H168.863V34.6283H168.658V34.4243H168.438V34.2204H168.233V34.0164H168.028V33.8124H167.807V33.6084H167.602V33.4045H167.397V33.2005H167.176V32.9965H166.766V32.7926H166.545V32.5886H166.34V32.3846H166.135V32.1806H165.914V31.9767H165.709V31.7727H165.504V31.5687H165.283V31.3647H165.078V31.1608H164.873V30.9568H164.653V30.7528H164.242V30.5488H164.022V30.3449H163.817V30.1409H163.612V29.9369H163.186V29.733H162.981V29.529H162.76V29.325H162.555V29.121H162.129V28.9171H161.924V28.7131H161.719V28.5091H161.498V28.3051H161.088V28.1012H160.867V27.8972H160.662V27.6932H160.457V27.4893H160.237V27.2853H159.827V27.0813H159.606V26.8773H159.401V26.6734H158.975V26.4694H158.77V26.2654H158.344V26.0614H158.139V25.8575H157.934V25.6535H157.508V25.4495H157.303V25.2456H156.877V25.0416H156.672V24.8376H156.246V24.6336H156.041V24.4297H155.821V24.2257H155.411V24.0217H155.19V23.8178H154.78V23.6138H154.559V23.4098H154.149V23.2058H153.928V23.0019H153.518V22.7979H153.092V22.5939H152.887V22.3899H152.461V22.186H152.035V21.982H151.83V21.778H151.405V21.574H151.2V21.3701H150.774V21.1661H150.364V20.9621H150.143V20.7582H149.733V20.5542H149.307V20.3502H148.881V20.1462H148.471V19.9423H148.25V19.7383H147.84V19.5343H147.414V19.3303H146.989V19.1264H146.579V18.9224H146.153V18.7184H145.727V18.5145H145.317V18.3105H144.891V18.1065H144.686V17.9025H144.26V17.6986H143.834V17.4946H143.204V17.2906H142.793V17.0866H142.368V16.8827H141.942V16.6787H141.311V16.4747H140.901V16.2708H140.475V16.0668H140.049V15.8628H139.639V15.6588H139.008V15.4549H138.583V15.2509H137.952V15.0469H137.526V14.8429H136.895V14.639H136.264V14.435H135.854V14.231H135.223V14.0271H134.592V13.8231H134.167V13.6191H133.536V13.4151H132.905V13.2112H132.274V13.0072H131.643V12.8032H131.012V12.5992H130.176V12.3953H129.546V12.1913H128.915V11.9873H128.284V11.7834H127.432V11.5794H126.596V11.3754H125.76V11.1714H124.909V10.9675H124.073V10.7635H123.016V10.5595H122.18V10.3555H121.345V10.1516H120.083V9.9476H118.821V9.74363H117.559V9.53965H116.298V9.33568H115.036V9.13171H112.923V8.92773H110.825V8.72376H108.507V8.51979H97.3721V8.72376H94.6279V8.92773H92.5303V9.13171H90.8428V9.33568H89.171V9.53965H87.9093V9.74363H86.6476V9.9476H85.5909V10.1516H84.3292V10.3555H83.2726V10.5595H82.4367V10.7635H81.6008V10.9675H80.5441V11.1714H79.7082V11.3754H78.8566V11.5794H78.2257V11.7834H77.3898V11.9873H76.759V12.1913H75.9231V12.3953H75.2923V12.5992H74.6614V12.8032H74.0306V13.0072H73.3997V13.2112H72.7688V13.4151H72.138V13.6191H71.5071V13.8231H70.8763V14.0271H70.2454V14.231H69.8196V14.435H69.1888V14.639H68.7629V14.8429H68.1321V15.0469H67.5012V15.2509H67.0912V15.4549H66.4603V15.6588H66.0345V15.8628H65.6087V16.0668H65.1986V16.2708H64.5678V16.4747H64.1419V16.6787H63.7161V16.8827H63.3061V17.0866H62.8802V17.2906H62.2494V17.4946H61.8236V17.6986H61.4135V17.9025H60.9877V18.1065H60.5619V18.3105H60.3568V18.5145H59.931V18.7184H59.5209V18.9224H59.0951V19.1264H58.6693V19.3303H58.2592V19.5343H57.8334V19.7383H57.4076V19.9423H57.2026V20.1462H56.7767V20.3502H56.3667V20.5542H55.9409V20.7582H55.7358V20.9621H55.31V21.1661H54.8842V21.3701H54.4741V21.574H54.2533V21.778H53.8433V21.982H53.4174V22.186H53.2124V22.3899H52.7866V22.5939H52.5816V22.7979H52.1557V23.0019H51.9507V23.2058H51.5249V23.4098H51.3199V23.6138H50.894V23.8178H50.4682V24.0217H50.2632V24.2257H50.0582V24.4297H49.6323V24.6336H49.4273V24.8376H49.0015V25.0416H48.7965V25.2456H48.3706V25.4495H48.1656V25.6535H47.9448V25.8575H47.5347V26.0614H47.3139V26.2654H46.9039V26.4694H46.6831V26.6734H46.4781V26.8773H46.0522V27.0813H45.8472V27.2853H45.6422V27.4893H45.4214V27.6932H45.0113V27.8972H44.7905V28.1012H44.5855V28.3051H44.3805V28.5091H43.9547V28.7131H43.7496V28.9171H43.5288V29.121H43.1188V29.325H42.898V29.529H42.693V29.733H42.4879V29.9369H42.2671V30.1409H42.0621V30.3449H41.6363V30.5488H41.4312V30.7528H41.2262V30.9568H41.0054V31.1608H40.8004V31.3647H40.5954V31.5687H40.3746V31.7727H39.9645V31.9767H39.7437V32.1806H39.5387V32.3846H39.3337V32.5886H39.1129V32.7926H38.9078V32.9965H38.7028V33.2005H38.482V33.4045H38.277V33.6084H38.072V33.8124H37.8512V34.0164H37.6461V34.2204H37.4411V34.4243H37.2203V34.6283H37.0153V34.8323H36.5895V35.0363H36.3844V35.2402H36.1794V35.4442H35.9586V35.6482H35.7536V36.0718H35.5485V36.2758H35.3277V36.4798H35.1227V36.6837H34.9177V36.8877H34.6969V37.0917H34.4919V37.2956H34.2868V37.4996H34.066V37.7036H33.861V37.9076H33.656V38.1115H33.4352V38.3155H33.2302V38.5195H33.0251V38.7235H32.8043V38.9274H32.5993V39.3511H32.3943V39.555H32.1735V39.759H31.9685V39.963H31.7634V40.167H31.5426V40.3709H31.3376V40.7946H31.1326V40.9985H30.9118V41.2025H30.7068V41.4065H30.5017V41.6105H30.2809V41.8144H30.0759V42.2381H29.8709V42.442H29.6501V42.646H29.445V42.85H29.24V43.2736H29.0192V43.4776H28.8142V43.6816H28.6092V44.1052H28.3884V44.3092H28.1833V44.5131H27.9783V44.7171H27.7575V45.1408H27.5525V45.3447H27.3475V45.5487H27.1267V45.9723H26.9216V46.1763H26.7166V46.3803H26.4958V46.8039H26.2908V47.0079H26.0858V47.4315H25.865V47.6355H25.6599V47.8395H25.4549V48.2631H25.2341V48.4671H25.0291V48.8907H24.8241V49.0947H24.6033V49.5183H24.3982V49.7223H24.1932V50.1459H23.9724V50.3499H23.7674V50.7735H23.5623V51.1972H23.3415V51.4011H23.1365V51.8248H22.9315V52.0288H22.7107V52.4524H22.5057V52.6564H22.3006V53.08H22.0798V53.5036H21.8748V53.7076H21.6698V54.1312H21.449V54.5549H21.244V54.9785H21.0389V55.1825H20.8181V55.6061H20.6131V56.0298H20.4081V56.4534H20.1873V56.6574H19.9823V57.081H19.7772V57.5046H19.5564V57.9283H19.3514V58.3519H19.1464V58.7755H18.9256V59.1992H18.7206V59.6228H18.5155V60.0465H18.2947V60.4701H18.0897V60.8937H17.8847V61.3174H17.6639V61.741H17.4588V62.1646H17.2538V62.7922H17.033V63.2159H16.828V63.6395H16.623V64.0631H16.4022V64.4868H16.1971V65.1144H15.9921V65.538H15.7713V66.1656H15.5663V66.5893H15.3613V67.2169H15.1405V67.6405H14.9354V68.2681H14.7304V68.6918H14.5096V69.3194H14.3046V69.947H14.0996V70.5746H13.8788V71.2022H13.6737V71.8298H13.4687V72.4574H13.2479V73.085H13.0429V73.7126H12.8379V74.3402H12.6171V74.9679H12.412V75.7994H12.207V76.631H11.9862V77.2586H11.7812V78.0902H11.5761V78.9218H11.3553V79.7534H11.1503V80.585H10.9453V81.6362H10.7245V82.4678H10.5195V83.519H10.3144V84.7742H10.0936V85.8255H9.88862V87.0807H9.68359V88.5399H9.46279V90.2188H9.25776V91.8976H9.05273V94.612H8.83194V98.1737H8.62691V104.873H8.83194V108.215H9.05273V110.93H9.25776V112.609H9.46279V114.288H9.68359V115.747H9.88862V117.002H10.0936V118.257H10.3144V119.308H10.5195V120.564H10.7245V121.395H10.9453V122.227H11.1503V123.058H11.3553V124.11H11.5761V124.941H11.7812V125.569H11.9862V126.4H12.207V127.232H12.412V127.86H12.6171V128.691H12.8379V129.319H13.0429V129.946H13.2479V130.574H13.4687V131.202H13.6737V131.829H13.8788V132.457H14.0996V133.084H14.3046V133.712H14.5096V134.136H14.7304V134.763H14.9354V135.187H15.1405V135.815H15.3613V136.238H15.5663V136.866H15.7713V137.289H15.9921V137.917H16.1971V138.341H16.4022V138.764H16.623V139.188H16.828V139.816H17.033V140.239H17.2538V140.663H17.4588V141.086H17.6639V141.51H17.8847V142.138H18.0897V142.561H18.2947V142.985H18.5155V143.409H18.7206V143.613H18.9256V144.036H19.1464V144.46H19.3514V144.883H19.5564V145.307H19.7772V145.731H19.9823V146.154H20.1873V146.578H20.4081V147.002H20.6131V147.206H20.8181V147.629H21.0389V148.053H21.244V148.477H21.449V148.68H21.6698V149.104H21.8748V149.528H22.0798V149.951H22.3006V150.155H22.5057V150.579H22.7107V150.783H22.9315V151.207H23.1365V151.411H23.3415V151.834H23.5623V152.258H23.7674V152.462H23.9724V152.885H24.1932V153.089H24.3982V153.513H24.6033V153.717H24.8241V154.141H25.0291V154.345H25.2341V154.768H25.4549V154.972H25.6599V155.176H25.865V155.6H26.0858V155.804H26.2908V156.227H26.4958V156.431H26.7166V156.635H26.9216V157.059H27.1267V157.263H27.3475V157.687H27.5525V157.891H27.7575V158.095H27.9783V158.299H28.1833V158.722H28.3884V158.926H28.6092V159.13H28.8142V159.554H29.0192V159.758H29.24V159.962H29.445V160.166H29.6501V160.589H29.8709V160.793H30.0759V160.997H30.2809V161.201H30.5017V161.625H30.7068V161.829H30.9118V162.033H31.1326V162.237H31.3376V162.441H31.5426V162.645H31.7634V162.849H31.9685V163.272H32.1735V163.476H32.3943V163.68H32.5993V163.884H32.8043V164.088H33.0251V164.292H33.2302V164.496H33.4352V164.7H33.656V165.124H33.861V165.328H34.066V165.532H34.2868V165.736H34.4919V165.94H34.6969V166.144H34.9177V166.348H35.1227V166.552H35.3277V166.756H35.5485V166.96H35.7536V167.164H35.9586V167.368H36.1794V167.572H36.3844V167.775H36.5895V167.979H36.8102V168.183H37.0153V168.387H37.2203V168.591H37.4411V168.795H37.6461V168.999H37.8512V169.203H38.072V169.407H38.277V169.611H38.482V169.815H38.7028V170.019H38.9078V170.223H39.3337V170.427H39.5387V170.631H39.7437V170.835H39.9645V171.039H40.1695V171.243H40.3746V171.447H40.5954V171.651H40.8004V171.855H41.2262V172.059H41.4312V172.263H41.6363V172.467H41.8571V172.671H42.0621V172.875H42.2671V173.079H42.4879V173.283H42.898V173.487H43.1188V173.691H43.3238V173.895H43.5288V174.099H43.9547V174.303H44.1597V174.507H44.3805V174.711H44.5855V174.915H45.0113V175.119H45.2164V175.322H45.4214V175.526H45.8472V175.73H46.0522V175.934H46.273V176.138H46.4781V176.342H46.9039V176.546H47.1089V176.75H47.5347V176.954H47.7398V177.158H47.9448V177.362H48.3706V177.566H48.5757V177.77H49.0015V177.974H49.2065V178.178H49.4273V178.382H49.8374V178.586H50.0582V178.79H50.4682V178.994H50.689V179.198H51.0991V179.402H51.3199V179.606H51.7299V179.81H51.9507V180.014H52.3608V180.218H52.7866V180.422H52.9916V180.626H53.4174V180.83H53.6225V181.034H54.0483V181.238H54.2533V181.442H54.6791V181.646H55.105V181.85H55.515V182.054H55.7358V182.258H56.1459V182.462H56.5717V182.666H56.9975V182.869H57.2026V183.073H57.6284V183.277H58.0384V183.481H58.4643V183.685H58.8901V183.889H59.3001V184.093H59.726V184.297H60.1518V184.501H60.5619V184.705H60.7827V184.909H61.1927V185.113H61.6185V185.317H62.0444V185.521H62.4544V185.725H63.0853V185.929H63.5111V186.133H63.9369V186.337H64.347V186.541H64.9778V186.745H65.4036V186.949H65.8295V187.153H66.2395V187.357H66.8704V187.561H67.2962V187.765H67.9271V187.969H68.3529V188.173H68.9837V188.377H69.3938V188.581H70.0246V188.785H70.4505V188.989H71.0813V189.193H71.7122V189.397H72.343V189.601H72.9739V189.805H73.6047V190.009H74.2356V190.213H74.8664V190.416H75.4973V190.62H76.3332V190.824H76.964V191.028H77.8157V191.232H78.4465V191.436H79.2824V191.64H80.1183V191.844H80.9699V192.048H82.0108V192.252H82.8625V192.456H83.6984V192.66H84.9601V192.864H86.0168V193.068H87.2785V193.272H88.3194V193.476H90.0069V193.68H91.6944V193.884H93.3662V194.088H95.8896V194.292H99.4697V194.496H106.204V194.292H109.768V194.088H111.882V193.884H113.979V193.68H115.667V193.476H116.929V193.272H118.19V193.068H119.452V192.864H120.714V192.66H121.755V192.456H122.606V192.252H123.647V192.048H124.499V191.844H125.335V191.64H126.171V191.436H127.227V191.232H127.858V191.028H128.489V190.824H129.12V190.62H129.956V190.416H130.587V190.213H131.217V190.009H132.069V189.805H132.7V189.601H133.331V189.397H133.741V189.193H134.372V188.989H135.002V188.785H135.428V188.581H136.059V188.377H136.69V188.173H137.116V187.969H137.747V187.765H138.378V187.561H138.788V187.357H139.213V187.153H139.844V186.949H140.27V186.745H140.68V186.541H141.106V186.337H141.737V186.133H142.163V185.929H142.573V185.725H142.999V185.521H143.424V185.317H144.055V185.113H144.465V184.909H144.891V184.705H145.096V184.501H145.522V184.297H145.948V184.093H146.358V183.889H146.784V183.685H147.209V183.481H147.62V183.277H148.045V183.073H148.471V182.869H148.676V182.666H149.102V182.462H149.512V182.258H149.938V182.054H150.143V181.85H150.569V181.646H150.995V181.442H151.2V181.238H151.625V181.034H152.035V180.83H152.256V180.626H152.666V180.422H152.887V180.218H153.297V180.014H153.723V179.81H153.928V179.606H154.354V179.402H154.78V179.198H154.985V178.994H155.19V178.79H155.616V178.586H155.821V178.382H156.246V178.178H156.451V177.974H156.877V177.77H157.082V177.566H157.303V177.362H157.713V177.158H157.934V176.954H158.344V176.75H158.565V176.546H158.975V176.342H159.196V176.138H159.401V175.934H159.827V175.73H160.032V175.526H160.237V175.322H160.457V175.119H160.867V174.915H161.088V174.711H161.293V174.507H161.498V174.303H161.924V174.099H162.129V173.895H162.35V173.691H162.555V173.487H162.981V173.283H163.186V173.079H163.391V172.875H163.612V172.671H164.022V172.467H164.242V172.263H164.448V172.059H164.653V171.855H164.873V171.651H165.078V171.447H165.283V171.243H165.504V171.039H165.914V170.835H166.135V170.631H166.34V170.427H166.545V170.223H166.766V170.019H166.971V169.815H167.176V169.611H167.397V169.407H167.602V169.203H167.807V168.999H168.028V168.795H168.438V168.591H168.658V168.387H168.863V168.183H169.069V167.979H169.289V167.775H169.494V167.572H169.699V167.368H169.92V167.164H170.125V166.74H170.33V166.536H170.551V166.332H170.756V166.128H170.961V165.924H171.182V165.72H171.387V165.516H171.592V165.312H171.813V165.108H172.018V164.904H172.223V164.7H172.444V164.496H172.649V164.292H172.854V164.088H173.074V163.884H173.279V163.68H173.484V163.257H173.705V163.053H173.91V162.849H174.115V162.645H174.336V162.441H174.541V162.017H174.746V161.813H174.967V161.609H175.172V161.405H175.377V161.201H175.598V160.997H175.803V160.574H176.008V160.37H176.229V160.166H176.434V159.962H176.639V159.758H176.86V159.334H177.065V159.13H177.27V158.926H177.49V158.503H177.695V158.299H177.9V158.095H178.121V157.671H178.326V157.467H178.531V157.263H178.752V156.839H178.957V156.635H179.162V156.431H179.383V156.008H179.588V155.804H179.793V155.38H180.014V155.176H180.219V154.972H180.424V154.549H180.645V154.345H180.85V153.921H181.055V153.717H181.276V153.293H181.481V153.089H181.686V152.666H181.906V152.462H182.111V152.038H182.316V151.834H182.537V151.411H182.742V151.207H182.947V150.783H183.168V150.579H183.373V150.155H183.578V149.732H183.799V149.528H184.004V149.104H184.209V148.68H184.43V148.477H184.635V148.273H184.84V148.069H185.266V147.865H185.691V147.661H186.102V147.457H186.527V147.253H188.846V147.457H189.682V147.661H189.887V147.865H190.312V148.069H190.518V148.273H190.738V148.477H190.943V148.68H191.148V148.884H191.369V149.512H191.574V149.936H191.779V150.563H192V152.446H191.779V153.074H191.574V153.497H191.369V153.921H191.148V154.345H190.943V154.549H190.738V154.972H190.518V155.396H190.312V155.6H190.107V156.024H189.887V156.227H189.682V156.651H189.477V156.855H189.256V157.279H189.051V157.483H188.846V157.906H188.625V158.11H188.42V158.534H188.215V158.958H187.994V159.162H187.789V159.366H187.584V159.789H187.363V159.993H187.158V160.417H186.953V160.621H186.732V160.825H186.527V161.248H186.322V161.452H186.102V161.656H185.896V162.08H185.691V162.284H185.471V162.488H185.266V162.912H185.061V163.115H184.84V163.539H184.635V163.743H184.43V163.947H184.209V164.371H184.004V164.575H183.799V164.779H183.578V164.983H183.373V165.406H183.168V165.61H182.947V165.814H182.742V166.018H182.537V166.222H182.316V166.646H182.111V166.85H181.906V167.054H181.686V167.258H181.481V167.462H181.276V167.666H181.055V168.089H180.85V168.293H180.645V168.497H180.424V168.701H180.219V168.905H180.014V169.329H179.793V169.533H179.588V169.737H179.383V169.941H179.162V170.145H178.957V170.349H178.752V170.553H178.531V170.757H178.326V170.961H178.121V171.165H177.9V171.369H177.695V171.573H177.49V171.777H177.27V171.98H177.065V172.184H176.86V172.608H176.639V172.812H176.434V173.016H176.229V173.22H176.008V173.424H175.803V173.628H175.598V173.832H175.377V174.036H175.172V174.24H174.967V174.444H174.746V174.648H174.541V174.852H174.336V175.056H174.115V175.26H173.705V175.464H173.484V175.668H173.279V175.872H173.074V176.076H172.854V176.28H172.649V176.484H172.444V176.688H172.223V176.892H172.018V177.095H171.813V177.299H171.592V177.503H171.182V177.707H170.961V177.911H170.756V178.115H170.551V178.319H170.33V178.523H170.125V178.727H169.92V178.931H169.699V179.135H169.289V179.339H169.069V179.543H168.863V179.747H168.658V179.951H168.233V180.155H168.028V180.359H167.807V180.563H167.602V180.767H167.176V180.971H166.971V181.175H166.766V181.379H166.545V181.583H166.135V181.787H165.914V181.991H165.709V182.195H165.504V182.399H165.078V182.603H164.873V182.807H164.653V183.011H164.242V183.215H164.022V183.419H163.817V183.623H163.391V183.827H163.186V184.031H162.76V184.235H162.555V184.439H162.129V184.642H161.924V184.846H161.719V185.05H161.293V185.254H161.088V185.458H160.662V185.662H160.457V185.866H160.237V186.07H159.827V186.274H159.606V186.478H159.196V186.682H158.77V186.886H158.565V187.09H158.139V187.294H157.934V187.498H157.508V187.702H157.082V187.906H156.877V188.11H156.451V188.314H156.041V188.518H155.821V188.722H155.411V188.926H155.19V189.13H154.78V189.334H154.354V189.538H154.149V189.742H153.723V189.946H153.297V190.15H152.887V190.354H152.461V190.558H152.035V190.762H151.625V190.966H151.405V191.17H150.995V191.374H150.569V191.578H150.143V191.782H149.733V191.985H149.307V192.189H148.881V192.393H148.471V192.597H148.045V192.801H147.62V193.005H147.209V193.209H146.784V193.413H146.358V193.617H145.727V193.821H145.317V194.025H144.891V194.229H144.465V194.433H144.055V194.637H143.424V194.841H142.999V195.045H142.573V195.249H142.163V195.453H141.532V195.657H140.901V195.861H140.475V196.065H139.844V196.269H139.213V196.473H138.788V196.677H138.157V196.881H137.526V197.085H137.116V197.289H136.485V197.493H135.854V197.697H135.223V197.901H134.592V198.105H133.962V198.309H133.11V198.513H132.479V198.717H131.848V198.921H131.217V199.125H130.381V199.329H129.751V199.532H128.915V199.736H128.063V199.94H127.227V200.144H126.171V200.348H125.335V200.552H124.499V200.756H123.647V200.96H122.606V201.164H121.345V201.368H120.083V201.572H118.821V201.776H117.559V201.98H116.077V202.184H113.979V202.388H111.882V202.592H109.768V202.796H105.147V203" fill="url(#paint0_linear_23543_48423)"/>
<defs>
<linearGradient id="paint0_linear_23543_48423" x1="45.7526" y1="13.5877" x2="156.483" y2="183.973" gradientUnits="userSpaceOnUse">
<stop stop-color="#FFCF00"/>
<stop offset="1" stop-color="#FAAD19"/>
</linearGradient>
</defs>
</svg>
