<svg width="88" height="94" viewBox="0 0 88 94" fill="none" xmlns="http://www.w3.org/2000/svg">
<path d="M46.1686 93.5226V93.4286H44.1446V93.3347H42.7928V93.2407H41.8314V93.1467H41.1592V93.0527H40.3857V92.9588H39.7135V92.8648H39.1352V92.7708H38.6509V92.6769H38.0726V92.5829H37.5883V92.4889H37.1112V92.395H36.7209V92.301H36.3378V92.207H35.9547V92.113H35.4703V92.0191H35.0872V91.9251H34.7981V91.8311H34.4078V91.7372H34.1186V91.6432H33.7355V91.5492H33.4464V91.4552H33.0633V91.3613H32.7741V91.2673H32.5789V91.1733H32.2898V91.0794H32.0007V90.9854H31.7115V90.8914H31.4224V90.7974H31.1332V90.7035H30.8441V90.6095H30.555V90.5155H30.3598V90.4216H30.0706V90.3276H29.8827V90.2336H29.5936V90.1397H29.3984V90.0457H29.1093V89.9517H28.9141V89.8577H28.6249V89.7638H28.437V89.6698H28.2418V89.5758H28.0467V89.4819H27.8587V89.3879H27.5696V89.2939H27.3744V89.1999H27.1792V89.106H26.9913V89.012H26.7961V88.918H26.601V88.8241H26.413V88.7301H26.2178V88.6361H26.0227V88.5422H25.8347V88.4482H25.6396V88.3542H25.4444V88.2602H25.2564V88.1663H25.0613V88.0723H24.8661V87.9783H24.6782V87.8844H24.483V87.7904H24.389V87.6964H24.1939V87.6024H23.9987V87.5085H23.8107V87.4145H23.7095V87.3205H23.5216V87.2266H23.3264V87.1326H23.1313V87.0386H23.0373V86.9447H22.8421V86.8507H22.6542V86.7567H22.553V86.6627H22.365V86.5688H22.2638V86.4748H22.0759V86.3808H21.8807V86.2868H21.7868V86.1929H21.5916V86.0989H21.4976V86.0049H21.3025V85.911H21.2085V85.817H21.0133V85.723H20.9193V85.6291H20.7242V85.5351H20.6302V85.4411H20.435V85.3471H20.3411V85.2532H20.1459V85.1592H20.0519V85.0652H19.9507V84.9713H19.7628V84.8773H19.6616V84.7833H19.4736V84.6893H19.3724V84.5954H19.2785V84.5014H19.0833V84.4074H18.9893V84.3135H18.8954V84.2195H18.7002V84.1255H18.6062V84.0316H18.505V83.9376H18.3171V83.8436H18.2159V83.7496H18.1219V83.6557H18.0279V83.5617H17.8328V83.4677H17.7388V83.3738H17.6376V83.2798H17.5436V83.1858H17.3484V83.0919H17.2545V82.9979H17.1605V82.9039H17.0593V82.8099H16.9653V82.716H16.7702V82.622H16.6762V82.528H16.5822V82.4341H16.481V82.3401H16.3871V82.2461H16.2931V82.1521H16.0979V82.0582H16.0039V81.9642H15.9027V81.8702H15.8088V81.7763H15.7148V81.6823H15.6136V81.5883H15.5196V81.4943H15.3245V81.4004H15.2305V81.3064H15.1365V81.2124H15.0353V81.1185H14.9414V81.0245H14.8474V80.9305H14.7462V80.8365H14.6522V80.7426H14.5582V80.6486H14.457V80.5546H14.3631V80.4607H14.2691V80.3667H14.1679V80.2727H14.0739V80.1788H13.98V80.0848H13.8788V79.9908H13.7848V79.8968H13.6908V79.8029H13.5896V79.7089H13.4956V79.6149H13.4017V79.521H13.3005V79.427H13.2065V79.333H13.1125V79.239H13.0113V79.1451H12.9174V79.0511H12.8234V78.9571H12.7222V78.8632H12.6282V78.7692H12.5343V78.6752H12.4331V78.5813H12.3391V78.3861H12.2451V78.2921H12.1439V78.1981H12.0499V78.1042H11.956V78.0102H11.8548V77.9162H11.7608V77.8223H11.6668V77.6271H11.5656V77.5331H11.4717V77.4391H11.3777V77.3452H11.2765V77.2512H11.1825V77.1572H11.0886V76.9621H10.9874V76.8681H10.8934V76.7741H10.7994V76.6802H10.6982V76.5862H10.6042V76.391H10.5103V76.297H10.4091V76.2031H10.3151V76.1091H10.2211V75.9139H10.1199V75.82H10.026V75.726H9.93199V75.632H9.83079V75.4368H9.73682V75.3429H9.64285V75.2489H9.54165V75.0537H9.44768V74.9598H9.3537V74.8658H9.25251V74.6706H9.15854V74.5767H9.06456V74.4827H8.96337V74.2875H8.8694V74.1935H8.77542V73.9984H8.67422V73.9044H8.58025V73.7092H8.48628V73.6153H8.38508V73.5213H8.29111V73.3261H8.19714V73.2321H8.09594V73.037H8.00197V72.943H7.908V72.7478H7.8068V72.6539H7.71283V72.4587H7.61886V72.3647H7.51766V72.1696H7.42369V71.9744H7.32972V71.8804H7.22852V71.6852H7.13455V71.5913H7.04058V71.3961H6.93938V71.3021H6.84541V71.107H6.75144V70.9118H6.65024V70.8178H6.55627V70.6227H6.4623V70.4275H6.3611V70.2323H6.26713V70.1383H6.17316V69.9432H6.07196V69.748H5.97799V69.5528H5.88402V69.4589H5.78282V69.2637H5.68885V69.0685H5.59487V68.8734H5.49368V68.6782H5.3997V68.483H5.30573V68.2878H5.20453V68.0927H5.11056V67.8975H5.01659V67.7023H4.91539V67.5072H4.82142V67.312H4.72745V67.1168H4.62625V66.9216H4.53228V66.7265H4.43831V66.5313H4.33711V66.3361H4.24314V66.047H4.14917V65.8518H4.04797V65.6567H3.954V65.4615H3.86003V65.2663H3.75883V64.9772H3.66486V64.782H3.57089V64.4929H3.46969V64.2977H3.37572V64.0086H3.28175V63.8134H3.18055V63.5242H3.08658V63.2351H2.99261V63.0399H2.89141V62.7508H2.79744V62.4617H2.70347V62.1725H2.60227V61.8834H2.5083V61.5942H2.41433V61.3051H2.31313V61.0159H2.21916V60.8208H2.12519V60.4377H2.02399V60.1485H1.93001V59.7654H1.83604V59.3823H1.73484V59.0932H1.64087V58.71H1.5469V58.4209H1.4457V57.9366H1.35173V57.5535H1.25776V57.1704H1.15656V56.6861H1.06259V56.303H0.968622V55.8186H0.867422V55.2404H0.773452V54.6621H0.679481V54.1778H0.578282V53.5055H0.484311V52.7321H0.39034V51.9586H0.289141V50.9972H0.19517V49.7467H0.101199V47.5275H0V45.8867H0.101199V43.7687H0.19517V42.5182H0.289141V41.4556H0.39034V40.6821H0.484311V40.0099H0.578282V39.3376H0.679481V38.7593H0.773452V38.181H0.867422V37.6967H0.968622V37.1185H1.06259V36.7353H1.15656V36.3522H1.25776V35.8679H1.35173V35.4848H1.4457V35.1017H1.5469V34.7186H1.64087V34.4294H1.73484V34.0463H1.83604V33.7572H1.93001V33.3741H2.02399V32.991H2.12519V32.7018H2.21916V32.4127H2.31313V32.1235H2.41433V31.8344H2.5083V31.5453H2.60227V31.2561H2.70347V30.967H2.79744V30.6778H2.89141V30.4827H2.99261V30.1935H3.08658V29.9984H3.18055V29.7092H3.28175V29.4201H3.37572V29.2249H3.46969V28.9358H3.57089V28.7406H3.66486V28.4515H3.75883V28.2563H3.86003V28.0611H3.954V27.8659H4.04797V27.5768H4.14917V27.3816H4.24314V27.1865H4.33711V26.9913H4.43831V26.7961H4.53228V26.507H4.62625V26.3118H4.72745V26.1166H4.82142V25.9215H4.91539V25.7263H5.01659V25.5311H5.11056V25.336H5.20453V25.1408H5.30573V24.9456H5.3997V24.7505H5.49368V24.6565H5.59487V24.4613H5.68885V24.2661H5.78282V24.071H5.88402V23.8758H5.97799V23.6806H6.07196V23.5867H6.17316V23.3915H6.26713V23.1963H6.3611V23.0012H6.4623V22.9072H6.55627V22.712H6.65024V22.5168H6.75144V22.4229H6.84541V22.2277H6.93938V22.0325H7.04058V21.9386H7.13455V21.7434H7.22852V21.6494H7.32972V21.4542H7.42369V21.2591H7.51766V21.1651H7.61886V20.9699H7.71283V20.876H7.8068V20.6808H7.908V20.5868H8.00197V20.3917H8.09594V20.2977H8.19714V20.1025H8.29111V20.0085H8.38508V19.8134H8.48628V19.7194H8.58025V19.6254H8.67422V19.4303H8.77542V19.3363H8.8694V19.1411H8.96337V19.0472H9.06456V18.9532H9.15854V18.758H9.25251V18.664H9.3537V18.4689H9.44768V18.3749H9.54165V18.2809H9.64285V18.187H9.73682V17.9918H9.83079V17.8978H9.93199V17.8038H10.026V17.6087H10.1199V17.5147H10.2211V17.4207H10.3151V17.3268H10.4091V17.1316H10.5103V17.0376H10.6042V16.9437H10.6982V16.8497H10.7994V16.6545H10.8934V16.5605H10.9874V16.4666H11.0886V16.3726H11.1825V16.2786H11.2765V16.1847H11.3777V15.9895H11.4717V15.8955H11.5656V15.8015H11.6668V15.7076H11.7608V15.6136H11.8548V15.5196H11.956V15.3245H12.0499V15.2305H12.1439V15.1365H12.2451V15.0426H12.3391V14.9486H12.4331V14.8546H12.5343V14.7606H12.6282V14.6667H12.7222V14.5727H12.8234V14.4787H12.9174V14.3848H13.0113V14.2908H13.1125V14.1968H13.2065V14.1028H13.3005V13.9077H13.4017V13.8137H13.4956V13.7197H13.5896V13.6258H13.6908V13.5318H13.7848V13.4378H13.8788V13.3438H13.98V13.2499H14.0739V13.1559H14.1679V13.0619H14.2691V12.968H14.457V12.874H14.5582V12.78H14.6522V12.6861H14.7462V12.5921H14.8474V12.4981H14.9414V12.4041H15.0353V12.3102H15.1365V12.2162H15.2305V12.1222H15.3245V12.0283H15.4257V11.9343H15.5196V11.8403H15.6136V11.7463H15.7148V11.6524H15.9027V11.5584H16.0039V11.4644H16.0979V11.3705H16.1919V11.2765H16.2931V11.1825H16.3871V11.0886H16.481V10.9946H16.6762V10.9006H16.7702V10.8066H16.8714V10.7127H16.9653V10.6187H17.0593V10.5247H17.1605V10.4308H17.3484V10.3368H17.4496V10.2428H17.5436V10.1488H17.7388V10.0549H17.8328V9.9609H17.9267V9.86693H18.0279V9.77296H18.2159V9.67899H18.3171V9.58502H18.411V9.49105H18.505V9.39708H18.7002V9.30311H18.7942V9.20914H18.8954V9.11517H19.0833V9.02119H19.1845V8.92722H19.2785V8.83325H19.4736V8.73928H19.5676V8.64531H19.7628V8.55134H19.8567V8.45737H19.9507V8.3634H20.1459V8.26943H20.2399V8.17546H20.435V8.08149H20.529V7.98751H20.6302V7.89354H20.8181V7.79957H20.9193V7.7056H21.1073V7.61163H21.2085V7.51766H21.3964V7.42369H21.5916V7.32972H21.6856V7.23575H21.8807V7.14178H21.9747V7.04781H22.1699V6.95384H22.2638V6.85987H22.459V6.7659H22.6542V6.67192H22.7482V6.57795H22.9433V6.48398H23.1313V6.39001H23.2325V6.29604H23.4204V6.20207H23.6156V6.1081H23.8107V6.01413H23.9047V5.92016H24.0999V5.82619H24.2878V5.73222H24.389V5.63825H24.577V5.54428H24.7721V5.4503H24.9673V5.35633H25.1553V5.26236H25.3504V5.16839H25.5456V5.07442H25.7335V4.98045H25.9287V4.88648H26.1239V4.79251H26.3118V4.69854H26.507V4.60457H26.7022V4.5106H26.8901V4.41663H27.0853V4.32266H27.2804V4.22868H27.4684V4.13471H27.7575V4.04074H27.9527V3.94677H28.1479V3.8528H28.3358V3.75883H28.531V3.66486H28.8201V3.57089H29.0153V3.47692H29.3044V3.38295H29.4924V3.28898H29.7815V3.19501H29.9767V3.10104H30.2658V3.00706H30.461V2.91309H30.7501V2.81912H30.9381V2.72515H31.2272V2.63118H31.5163V2.53721H31.8055V2.44324H32.0946V2.34927H32.3838V2.2553H32.6729V2.16133H32.9621V2.06736H33.2512V1.97339H33.6415V1.87942H33.9307V1.78544H34.3138V1.69147H34.6029V1.5975H34.986V1.50353H35.2752V1.40956H35.6655V1.31559H36.1426V1.22162H36.5329V1.12765H36.9161V1.03368H37.4004V0.939708H37.7835V0.845737H38.3618V0.751766H38.94V0.657795H39.4243V0.563825H40.0026V0.469854H40.7689V0.375883H41.5423V0.281912H42.2146V0.187942H43.4723V0.0939708H44.8168V0H49.2551V0.0939708H50.7948V0.187942H51.7562V0.281912H52.7248V0.375883H53.5922V0.469854H54.1705V0.563825H54.7488V0.657795H55.3271V0.751766H55.9054V0.845737H56.3825V0.939708H56.8668V1.03368H57.2499V1.12765H57.6402V1.22162H58.0233V1.31559H58.5076V1.40956H58.8908V1.50353H59.2739V1.5975H59.6642V1.69147H59.9533V1.78544H60.2425V1.87942H60.6256V1.97339H60.9147V2.06736H61.2039V2.16133H61.493V2.2553H61.8761V2.34927H62.1653V2.44324H62.4544V2.53721H62.6496V2.63118H62.9387V2.72515H63.2279V2.81912H63.423V2.91309H63.7122V3.00706H64.0013V3.10104H64.1893V3.19501H64.4784V3.28898H64.7675V3.38295H64.9627V3.47692H65.2519V3.57089H65.447V3.66486H65.635V3.75883H65.8301V3.8528H66.1193V3.94677H66.3144V4.04074H66.5024V4.13471H66.6975V4.22868H66.9867V4.32266H67.1819V4.41663H67.3698V4.5106H67.565V4.60457H67.7601V4.69854H67.9481V4.79251H68.1433V4.88648H68.3384V4.98045H68.5264V5.07442H68.7215V5.16839H68.9167V5.26236H69.1047V5.35633H69.2998V5.4503H69.3938V5.54428H69.589V5.63825H69.7841V5.73222H69.9721V5.82619H70.1672V5.92016H70.3624V6.01413H70.5504V6.1081H70.6516V6.20207H70.8395V6.29604H71.0347V6.39001H71.1286V6.48398H71.3238V6.57795H71.519V6.67192H71.613V6.7659H71.8081V6.85987H71.9021V6.95384H72.0973V7.04781H72.2852V7.14178H72.3864V7.23575H72.5743V7.32972H72.7695V7.42369H72.8635V7.51766H73.0587V7.61163H73.1526V7.7056H73.3478V7.79957H73.4418V7.89354H73.6369V7.98751H73.7309V8.08149H73.8321V8.17546H74.0201V8.26943H74.1212V8.3634H74.3092V8.45737H74.4104V8.55134H74.5983V8.64531H74.6995V8.73928H74.7935V8.83325H74.9887V8.92722H75.0826V9.02119H75.2778V9.11517H75.3718V9.20914H75.4658V9.30311H75.6609V9.39708H75.7549V9.49105H75.8561V9.58502H76.044V9.67899H76.1452V9.77296H76.2392V9.86693H76.3332V9.9609H76.4344V10.0549H76.6223V10.1488H76.7235V10.2428H76.8175V10.3368H76.9115V10.4308H77.1066V10.5247H77.2006V10.6187H77.3018V10.7127H77.3958V10.8066H77.5909V10.9006H77.6849V10.9946H77.7789V11.0886H77.8801V11.1825H78.068V11.2765H78.1692V11.3705H78.2632V11.4644H78.3572V11.5584H78.4584V11.6524H78.5523V11.7463H78.6463V11.8403H78.7475V11.9343H78.8415V12.0283H78.9354V12.1222H79.0366V12.2162H79.2246V12.3102H79.3258V12.4041H79.4198V12.4981H79.5137V12.5921H79.6149V12.6861H79.7089V12.78H79.8029V12.874H79.9041V12.968H79.998V13.0619H80.092V13.1559H80.1932V13.2499H80.2872V13.3438H80.3811V13.4378H80.4823V13.5318H80.5763V13.6258H80.6703V13.7197H80.7715V13.8137H80.8655V13.9077H80.9594V14.0016H81.0606V14.0956H81.1546V14.1896H81.2486V14.2836H81.3498V14.3775H81.4437V14.4715H81.5377V14.5655H81.6389V14.6594H81.7329V14.7534H81.8269V14.8474H81.928V14.9414H82.022V15.0353H82.116V15.2305H82.2172V15.3245H82.3112V15.4184H82.4051V15.5124H82.5063V15.6064H82.6003V15.7003H82.6943V15.7943H82.7955V15.9895H82.8894V16.0835H82.9834V16.1774H83.0846V16.2714H83.1786V16.3654H83.2726V16.5605H83.3737V16.6545H83.4677V16.7485H83.5617V16.8425H83.6629V16.9364H83.7569V17.1316H83.8508V17.2256H83.952V17.3195H84.046V17.4135H84.14V17.5075H84.2412V17.7026H84.3351V17.7966H84.4291V17.8906H84.5303V18.0858H84.6243V18.1797H84.7183V18.2737H84.8195V18.4689H84.9134V18.5628H85.0074V18.6568H85.1086V18.852H85.2026V18.946H85.2965V19.1411H85.3977V19.2351H85.4917V19.3291H85.5857V19.5242H85.6869V19.6182H85.7809V19.7122H85.8748V19.9073H85.976V20.0013H86.07V20.0953H86.164V20.2905H86.2652V20.4856H86.3591V20.5796H86.4531V20.7748H86.5543V20.8687H86.6483V21.0639H86.7422V21.1579H86.8434V21.3531H86.9374V21.447H87.0314V21.6422H87.1326V21.7362H87.2265V21.9313H87.3205V22.0253H87.4217V22.2205H87.5157V22.4156H87.6097V22.5096H87.7109V22.7048H87.8048V22.9H87.8988V23.2831H88V24.1505H87.8988V24.4396H87.8048V24.6348H87.7109V24.83H87.6097V24.9239H87.5157V25.0179H87.4217V25.1119H87.3205V25.307H87.1326V25.401H87.0314V25.495H86.7422V25.589H86.3591V25.6829H86.07V25.589H85.3977V25.495H85.2026V25.401H85.0074V25.307H84.8195V25.2131H84.7183V25.1191H84.6243V25.0251H84.5303V24.9312H84.4291V24.8372H84.3351V24.642H84.2412V24.4469H84.14V24.3529H84.046V24.1577H83.952V23.9625H83.8508V23.8686H83.7569V23.6734H83.6629V23.5794H83.5617V23.3843H83.4677V23.2903H83.3737V23.0951H83.2726V23.0012H83.1786V22.806H83.0846V22.712H82.9834V22.5168H82.8894V22.4229H82.7955V22.2277H82.6943V22.1337H82.6003V21.9386H82.5063V21.8446H82.4051V21.7506H82.3112V21.5554H82.2172V21.4615H82.116V21.3675H82.022V21.1723H81.928V21.0784H81.8269V20.9844H81.7329V20.7892H81.6389V20.6953H81.5377V20.5001H81.4437V20.4061H81.3498V20.3121H81.2486V20.117H81.1546V20.023H81.0606V19.929H80.9594V19.8351H80.8655V19.7411H80.7715V19.5459H80.6703V19.452H80.5763V19.358H80.4823V19.264H80.3811V19.17H80.2872V18.9749H80.1932V18.8809H80.092V18.7869H79.998V18.693H79.9041V18.599H79.8029V18.4038H79.7089V18.3098H79.6149V18.2159H79.5137V18.1219H79.4198V18.0279H79.3258V17.934H79.2246V17.84H79.1306V17.746H79.0366V17.5508H78.9354V17.4569H78.8415V17.3629H78.7475V17.2689H78.6463V17.175H78.5523V17.081H78.4584V16.987H78.3572V16.8931H78.2632V16.7991H78.1692V16.7051H78.068V16.6111H77.9741V16.5172H77.8801V16.4232H77.7789V16.3292H77.6849V16.2353H77.5909V16.1413H77.4897V16.0473H77.3958V15.9533H77.3018V15.8594H77.2006V15.7654H77.1066V15.6714H77.0127V15.5775H76.9115V15.4835H76.8175V15.3895H76.7235V15.2955H76.6223V15.2016H76.4344V15.1076H76.3332V15.0136H76.2392V14.9197H76.1452V14.8257H76.044V14.7317H75.9501V14.6378H75.8561V14.5438H75.7549V14.4498H75.6609V14.3558H75.5669V14.2619H75.4658V14.1679H75.2778V14.0739H75.1766V13.98H75.0826V13.886H74.9887V13.792H74.7935V13.698H74.6995V13.6041H74.5983V13.5101H74.5044V13.4161H74.3092V13.3222H74.2152V13.2282H74.1212V13.1342H74.0201V13.0403H73.8321V12.9463H73.7309V12.8523H73.6369V12.7583H73.543V12.6644H73.4418V12.5704H73.2538V12.4764H73.1526V12.3825H73.0587V12.2885H72.8635V12.1945H72.7695V12.1005H72.5743V12.0066H72.4804V11.9126H72.3864V11.8186H72.1912V11.7247H72.0973V11.6307H71.9021V11.5367H71.8081V11.4427H71.613V11.3488H71.519V11.2548H71.4178V11.1608H71.2298V11.0669H71.1286V10.9729H70.9407V10.8789H70.8395V10.785H70.6516V10.691H70.5504V10.597H70.3624V10.503H70.1672V10.4091H70.0733V10.3151H69.8781V10.2211H69.6829V10.1272H69.589V10.0332H69.3938V9.93922H69.2998V9.84525H69.1047V9.75127H68.9167V9.6573H68.8155V9.56333H68.6276V9.46936H68.4324V9.37539H68.2372V9.28142H68.0493V9.18745H67.9481V9.09348H67.7601V8.99951H67.565V8.90554H67.3698V8.81157H67.1819V8.7176H66.9867V8.62362H66.7915V8.52965H66.6036V8.43568H66.4084V8.34171H66.3144V8.24774H66.1193V8.15377H65.9241V8.0598H65.635V7.96583H65.447V7.87186H65.2519V7.77789H65.0567V7.68392H64.7675V7.58995H64.5796V7.49598H64.3844V7.402H64.1893V7.30803H64.0013V7.21406H63.7122V7.12009H63.517V7.02612H63.2279V6.93215H63.0327V6.83818H62.7436V6.74421H62.4544V6.65024H62.2665V6.55627H61.9773V6.4623H61.6882V6.36833H61.493V6.27436H61.2039V6.18038H60.9147V6.08641H60.6256V5.99244H60.3365V5.89847H60.0473V5.8045H59.6642V5.71053H59.3751V5.61656H59.0859V5.52259H58.7968V5.42862H58.4064V5.33465H58.0233V5.24068H57.6402V5.14671H57.2499V5.05274H56.8668V4.95877H56.3825V4.86479H55.9993V4.77082H55.6162V4.67685H55.038V4.58288H54.4597V4.48891H53.8814V4.39494H53.3031V4.30097H52.7248V4.207H51.7562V4.11303H50.7948V4.01906H49.7322V3.92509H44.6289V4.01906H43.3711V4.11303H42.4097V4.207H41.6363V4.30097H40.8701V4.39494H40.2918V4.48891H39.7135V4.58288H39.2292V4.67685H38.6509V4.77082H38.1666V4.86479H37.7835V4.95877H37.4004V5.05274H36.9161V5.14671H36.5329V5.24068H36.1426V5.33465H35.8535V5.42862H35.4703V5.52259H35.1812V5.61656H34.7981V5.71053H34.509V5.8045H34.2198V5.89847H33.9307V5.99244H33.6415V6.08641H33.3524V6.18038H33.0633V6.27436H32.7741V6.36833H32.485V6.4623H32.1958V6.55627H32.0007V6.65024H31.7115V6.74421H31.5163V6.83818H31.2272V6.93215H30.9381V7.02612H30.7501V7.12009H30.461V7.21406H30.2658V7.30803H30.0706V7.402H29.8827V7.49598H29.5936V7.58995H29.3984V7.68392H29.2032V7.77789H29.0153V7.87186H28.8201V7.96583H28.531V8.0598H28.3358V8.15377H28.1479V8.24774H27.9527V8.34171H27.7575V8.43568H27.6635V8.52965H27.4684V8.62362H27.2804V8.7176H27.0853V8.81157H26.8901V8.90554H26.7022V8.99951H26.507V9.09348H26.3118V9.18745H26.2178V9.28142H26.0227V9.37539H25.8347V9.46936H25.6396V9.56333H25.5456V9.6573H25.3504V9.75127H25.1553V9.84525H24.9673V9.93922H24.8661V10.0332H24.6782V10.1272H24.483V10.2211H24.389V10.3151H24.1939V10.4091H24.0999V10.503H23.9047V10.597H23.8107V10.691H23.6156V10.785H23.5216V10.8789H23.3264V10.9729H23.1313V11.0669H23.0373V11.1608H22.9433V11.2548H22.7482V11.3488H22.6542V11.4427H22.459V11.5367H22.365V11.6307H22.1699V11.7247H22.0759V11.8186H21.9747V11.9126H21.7868V12.0066H21.6856V12.1005H21.4976V12.1945H21.3964V12.2885H21.3025V12.3825H21.1073V12.4764H21.0133V12.5704H20.9193V12.6644H20.8181V12.7583H20.6302V12.8523H20.529V12.9463H20.435V13.0403H20.3411V13.1342H20.1459V13.2282H20.0519V13.3222H19.9507V13.4161H19.7628V13.5101H19.6616V13.6041H19.5676V13.698H19.4736V13.792H19.3724V13.886H19.2785V13.98H19.0833V14.0739H18.9893V14.1679H18.8954V14.2619H18.7942V14.3558H18.7002V14.4498H18.6062V14.5438H18.505V14.6378H18.3171V14.7317H18.2159V14.8257H18.1219V14.9197H18.0279V15.0136H17.9267V15.1076H17.8328V15.2016H17.7388V15.2955H17.6376V15.3895H17.5436V15.4835H17.4496V15.5775H17.3484V15.6714H17.2545V15.7654H17.1605V15.8594H17.0593V15.9533H16.9653V16.0473H16.7702V16.1413H16.6762V16.2353H16.5822V16.3292H16.481V16.4232H16.3871V16.6184H16.2931V16.7123H16.1919V16.8063H16.0979V16.9003H16.0039V16.9943H15.9027V17.0882H15.8088V17.1822H15.7148V17.2762H15.6136V17.3701H15.5196V17.4641H15.4257V17.5581H15.3245V17.652H15.2305V17.746H15.1365V17.84H15.0353V17.934H14.9414V18.1291H14.8474V18.2231H14.7462V18.3171H14.6522V18.411H14.5582V18.505H14.457V18.599H14.3631V18.7942H14.2691V18.8881H14.1679V18.9821H14.0739V19.0761H13.98V19.17H13.8788V19.264H13.7848V19.4592H13.6908V19.5531H13.5896V19.6471H13.4956V19.7411H13.4017V19.9363H13.3005V20.0302H13.2065V20.1242H13.1125V20.3194H13.0113V20.4133H12.9174V20.5073H12.8234V20.6013H12.7222V20.7965H12.6282V20.8904H12.5343V20.9844H12.4331V21.1796H12.3391V21.2735H12.2451V21.3675H12.1439V21.5627H12.0499V21.6566H11.956V21.8518H11.8548V21.9458H11.7608V22.0398H11.6668V22.2349H11.5656V22.3289H11.4717V22.5241H11.3777V22.618H11.2765V22.8132H11.1825V22.9072H11.0886V23.1024H10.9874V23.1963H10.8934V23.3915H10.7994V23.5867H10.6982V23.6806H10.6042V23.8758H10.5103V23.9698H10.4091V24.1649H10.3151V24.2589H10.2211V24.4541H10.1199V24.6493H10.026V24.7432H9.93199V24.9384H9.83079V25.1336H9.73682V25.3287H9.64285V25.4227H9.54165V25.6179H9.44768V25.813H9.3537V26.0082H9.25251V26.1022H9.15854V26.2974H9.06456V26.4925H8.96337V26.6877H8.8694V26.8829H8.77542V27.078H8.67422V27.2732H8.58025V27.4684H8.48628V27.6635H8.38508V27.8587H8.29111V28.0539H8.19714V28.2491H8.09594V28.4442H8.00197V28.6394H7.908V28.9285H7.8068V29.1237H7.71283V29.3189H7.61886V29.514H7.51766V29.7092H7.42369V29.9984H7.32972V30.1935H7.22852V30.4827H7.13455V30.6778H7.04058V30.967H6.93938V31.1622H6.84541V31.4513H6.75144V31.6465H6.65024V31.9356H6.55627V32.2247H6.4623V32.5139H6.3611V32.803H6.26713V33.0922H6.17316V33.3813H6.07196V33.6704H5.97799V33.9596H5.88402V34.2487H5.78282V34.5379H5.68885V34.921H5.59487V35.3041H5.49368V35.5932H5.3997V35.9763H5.30573V36.3595H5.20453V36.7426H5.11056V37.1257H5.01659V37.61H4.91539V37.9931H4.82142V38.4774H4.72745V39.0557H4.62625V39.54H4.53228V40.1183H4.43831V40.7905H4.33711V41.564H4.24314V42.3374H4.14917V43.588H4.04797V45.2289H3.954V48.3154H4.04797V49.8551H4.14917V51.1056H4.24314V51.8791H4.33711V52.6525H4.43831V53.3248H4.53228V53.9031H4.62625V54.4814H4.72745V54.9657H4.82142V55.544H4.91539V55.9271H5.01659V56.3102H5.11056V56.6933H5.20453V57.1776H5.30573V57.5607H5.3997V57.8499H5.49368V58.233H5.59487V58.6161H5.68885V58.9052H5.78282V59.2883H5.88402V59.5775H5.97799V59.8666H6.07196V60.1558H6.17316V60.4449H6.26713V60.734H6.3611V61.0232H6.4623V61.3123H6.55627V61.6015H6.65024V61.7966H6.75144V62.0858H6.84541V62.2809H6.93938V62.5701H7.04058V62.7652H7.13455V63.0544H7.22852V63.2496H7.32972V63.5387H7.42369V63.7339H7.51766V63.929H7.61886V64.1242H7.71283V64.4133H7.8068V64.6085H7.908V64.8037H8.00197V64.9989H8.09594V65.194H8.19714V65.4832H8.29111V65.6783H8.38508V65.8735H8.48628V66.0687H8.58025V66.1627H8.67422V66.3578H8.77542V66.553H8.8694V66.7482H8.96337V66.9433H9.06456V67.1385H9.15854V67.3337H9.25251V67.5288H9.3537V67.724H9.44768V67.818H9.54165V68.0132H9.64285V68.2083H9.73682V68.4035H9.83079V68.4975H9.93199V68.6926H10.026V68.8878H10.1199V69.083H10.2211V69.1769H10.3151V69.3721H10.4091V69.4661H10.5103V69.6613H10.6042V69.7552H10.6982V69.9504H10.7994V70.1456H10.8934V70.2395H10.9874V70.4347H11.0886V70.5287H11.1825V70.7238H11.2765V70.8178H11.3777V71.013H11.4717V71.107H11.5656V71.3021H11.6668V71.3961H11.7608V71.4901H11.8548V71.6852H11.956V71.7792H12.0499V71.9744H12.1439V72.0684H12.2451V72.1623H12.3391V72.3575H12.4331V72.4515H12.5343V72.6466H12.6282V72.7406H12.7222V72.8346H12.8234V72.9286H12.9174V73.1237H13.0113V73.2177H13.1125V73.3117H13.2065V73.5068H13.3005V73.6008H13.4017V73.6948H13.4956V73.7887H13.5896V73.9839H13.6908V74.0779H13.7848V74.1719H13.8788V74.2658H13.98V74.461H14.0739V74.555H14.1679V74.6489H14.2691V74.7429H14.3631V74.8369H14.457V74.9308H14.5582V75.0248H14.6522V75.22H14.7462V75.314H14.8474V75.4079H14.9414V75.5019H15.0353V75.5959H15.1365V75.6898H15.2305V75.7838H15.3245V75.8778H15.4257V76.073H15.5196V76.1669H15.6136V76.2609H15.7148V76.3549H15.8088V76.4488H15.9027V76.5428H16.0039V76.6368H16.0979V76.7308H16.1919V76.8247H16.2931V76.9187H16.3871V77.0127H16.481V77.1066H16.5822V77.2006H16.6762V77.2946H16.7702V77.3885H16.8714V77.4825H16.9653V77.5765H17.0593V77.6705H17.1605V77.7644H17.2545V77.8584H17.3484V77.9524H17.4496V78.0463H17.5436V78.1403H17.6376V78.2343H17.7388V78.3282H17.8328V78.4222H18.0279V78.5162H18.1219V78.6102H18.2159V78.7041H18.3171V78.7981H18.411V78.8921H18.505V78.986H18.6062V79.08H18.7002V79.174H18.8954V79.268H18.9893V79.3619H19.0833V79.4559H19.1845V79.5499H19.2785V79.6438H19.3724V79.7378H19.4736V79.8318H19.6616V79.9258H19.7628V80.0197H19.8567V80.1137H19.9507V80.2077H20.1459V80.3016H20.2399V80.3956H20.3411V80.4896H20.435V80.5836H20.6302V80.6775H20.7242V80.7715H20.8181V80.8655H21.0133V80.9594H21.1073V81.0534H21.2085V81.1474H21.3025V81.2413H21.4976V81.3353H21.5916V81.4293H21.7868V81.5233H21.8807V81.6172H21.9747V81.7112H22.1699V81.8052H22.2638V81.8991H22.459V81.9931H22.553V82.0871H22.6542V82.1811H22.8421V82.275H22.9433V82.369H23.1313V82.463H23.2325V82.5569H23.4204V82.6509H23.5216V82.7449H23.7095V82.8389H23.8107V82.9328H23.9987V83.0268H24.1939V83.1208H24.2878V83.2147H24.483V83.3087H24.577V83.4027H24.7721V83.4966H24.8661V83.5906H25.0613V83.6846H25.2564V83.7786H25.4444V83.8725H25.5456V83.9665H25.7335V84.0605H25.9287V84.1544H26.1239V84.2484H26.2178V84.3424H26.413V84.4364H26.601V84.5303H26.7961V84.6243H26.9913V84.7183H27.1792V84.8122H27.3744V84.9062H27.5696V85.0002H27.7575V85.0941H27.8587V85.1881H28.0467V85.2821H28.2418V85.3761H28.437V85.47H28.6249V85.564H28.9141V85.658H29.1093V85.7519H29.3044V85.8459H29.4924V85.9399H29.7815V86.0339H29.9767V86.1278H30.1718V86.2218H30.3598V86.3158H30.6489V86.4097H30.8441V86.5037H31.1332V86.5977H31.3284V86.6917H31.6175V86.7856H31.8055V86.8796H32.0946V86.9736H32.2898V87.0675H32.5789V87.1615H32.8681V87.2555H33.1572V87.3494H33.4464V87.4434H33.7355V87.5374H34.0246V87.6314H34.3138V87.7253H34.6029V87.8193H34.986V87.9133H35.2752V88.0072H35.6655V88.1012H35.9547V88.1952H36.3378V88.2892H36.7209V88.3831H37.1112V88.4771H37.5883V88.5711H37.9786V88.665H38.3618V88.759H38.94V88.853H39.4243V88.9469H40.0026V89.0409H40.4797V89.1349H41.2532V89.2289H42.0266V89.3228H42.7928V89.4168H43.9494V89.5108H45.5903V89.6048H48.6769V89.5108H50.3105V89.4168H51.2791V89.3228H52.2405V89.2289H53.014V89.1349H53.5922V89.0409H54.1705V88.9469H54.7488V88.853H55.3271V88.759H55.8042V88.665H56.1945V88.5711H56.6716V88.4771H57.0619V88.3831H57.445V88.2892H57.8282V88.1952H58.3125V88.1012H58.6016V88.0072H58.8908V87.9133H59.1799V87.8193H59.563V87.7253H59.8521V87.6314H60.1413V87.5374H60.5316V87.4434H60.8208V87.3494H61.1099V87.2555H61.2979V87.1615H61.587V87.0675H61.8761V86.9736H62.0713V86.8796H62.3604V86.7856H62.6496V86.6917H62.8448V86.5977H63.1339V86.5037H63.423V86.4097H63.611V86.3158H63.8061V86.2218H64.0953V86.1278H64.2905V86.0339H64.4784V85.9399H64.6736V85.8459H64.9627V85.7519H65.1579V85.658H65.3458V85.564H65.541V85.47H65.7362V85.3761H66.0253V85.2821H66.2132V85.1881H66.4084V85.0941H66.5024V85.0002H66.6975V84.9062H66.8927V84.8122H67.0807V84.7183H67.2758V84.6243H67.471V84.5303H67.659V84.4364H67.8541V84.3424H68.0493V84.2484H68.1433V84.1544H68.3384V84.0605H68.5264V83.9665H68.7215V83.8725H68.8155V83.7786H69.0107V83.6846H69.2058V83.5906H69.2998V83.4966H69.495V83.4027H69.6829V83.3087H69.7841V83.2147H69.9721V83.1208H70.0733V83.0268H70.2612V82.9328H70.4564V82.8389H70.5504V82.7449H70.7455V82.6509H70.9407V82.5569H71.0347V82.463H71.1286V82.369H71.3238V82.275H71.4178V82.1811H71.613V82.0871H71.7069V81.9931H71.9021V81.8991H71.9961V81.8052H72.0973V81.7112H72.2852V81.6172H72.3864V81.5233H72.5743V81.4293H72.6755V81.3353H72.8635V81.2413H72.9647V81.1474H73.0587V81.0534H73.2538V80.9594H73.3478V80.8655H73.4418V80.7715H73.543V80.6775H73.7309V80.5836H73.8321V80.4896H73.9261V80.3956H74.0201V80.3016H74.2152V80.2077H74.3092V80.1137H74.4104V80.0197H74.5044V79.9258H74.6995V79.8318H74.7935V79.7378H74.8875V79.6438H74.9887V79.5499H75.1766V79.4559H75.2778V79.3619H75.3718V79.268H75.4658V79.174H75.5669V79.08H75.6609V78.986H75.7549V78.8921H75.8561V78.7981H76.044V78.7041H76.1452V78.6102H76.2392V78.5162H76.3332V78.4222H76.4344V78.3282H76.5283V78.2343H76.6223V78.1403H76.7235V78.0463H76.8175V77.9524H76.9115V77.8584H77.0127V77.7644H77.2006V77.6705H77.3018V77.5765H77.3958V77.4825H77.4897V77.3885H77.5909V77.2946H77.6849V77.2006H77.7789V77.1066H77.8801V77.0127H77.9741V76.8175H78.068V76.7235H78.1692V76.6295H78.2632V76.5356H78.3572V76.4416H78.4584V76.3476H78.5523V76.2537H78.6463V76.1597H78.7475V76.0657H78.8415V75.9718H78.9354V75.8778H79.0366V75.7838H79.1306V75.6898H79.2246V75.5959H79.3258V75.5019H79.4198V75.4079H79.5137V75.2128H79.6149V75.1188H79.7089V75.0248H79.8029V74.9308H79.9041V74.8369H79.998V74.6417H80.092V74.5477H80.1932V74.4538H80.2872V74.3598H80.3811V74.2658H80.4823V74.1719H80.5763V73.9767H80.6703V73.8827H80.7715V73.7887H80.8655V73.6948H80.9594V73.6008H81.0606V73.4056H81.1546V73.3117H81.2486V73.2177H81.3498V73.0225H81.4437V72.9286H81.5377V72.8346H81.6389V72.6394H81.7329V72.5454H81.8269V72.4515H81.928V72.2563H82.022V72.1623H82.116V72.0684H82.2172V71.8732H82.3112V71.7792H82.4051V71.584H82.5063V71.4901H82.6003V71.3961H82.6943V71.2009H82.7955V71.107H82.8894V70.9118H82.9834V70.8178H83.0846V70.6227H83.1786V70.5287H83.2726V70.3335H83.3737V70.2395H83.4677V70.0444H83.5617V69.9504H83.6629V69.7552H83.7569V69.6613H83.8508V69.4661H83.952V69.3721H84.046V69.1769H84.14V68.9818H84.2412V68.8878H84.3351V68.6926H84.4291V68.4975H84.5303V68.4035H84.6243V68.3095H84.7183V68.2156H84.9134V68.1216H85.1086V68.0276H85.2965V67.9336H85.4917V67.8397H86.5543V67.9336H86.9374V68.0276H87.0314V68.1216H87.2265V68.2156H87.3205V68.3095H87.4217V68.4035H87.5157V68.4975H87.6097V68.5914H87.7109V68.8806H87.8048V69.0758H87.8988V69.3649H88V70.2323H87.8988V70.5214H87.8048V70.7166H87.7109V70.9118H87.6097V71.107H87.5157V71.2009H87.4217V71.3961H87.3205V71.5913H87.2265V71.6852H87.1326V71.8804H87.0314V71.9744H86.9374V72.1696H86.8434V72.2635H86.7422V72.4587H86.6483V72.5527H86.5543V72.7478H86.4531V72.8418H86.3591V73.037H86.2652V73.2321H86.164V73.3261H86.07V73.4201H85.976V73.6153H85.8748V73.7092H85.7809V73.9044H85.6869V73.9984H85.5857V74.0923H85.4917V74.2875H85.3977V74.3815H85.2965V74.4754H85.2026V74.6706H85.1086V74.7646H85.0074V74.8586H84.9134V75.0537H84.8195V75.1477H84.7183V75.3429H84.6243V75.4368H84.5303V75.5308H84.4291V75.726H84.3351V75.82H84.2412V75.9139H84.14V76.0079H84.046V76.2031H83.952V76.297H83.8508V76.391H83.7569V76.485H83.6629V76.5789H83.5617V76.7741H83.4677V76.8681H83.3737V76.9621H83.2726V77.056H83.1786V77.15H83.0846V77.244H82.9834V77.4391H82.8894V77.5331H82.7955V77.6271H82.6943V77.7211H82.6003V77.815H82.5063V78.0102H82.4051V78.1042H82.3112V78.1981H82.2172V78.2921H82.116V78.3861H82.022V78.48H81.928V78.574H81.8269V78.668H81.7329V78.762H81.6389V78.8559H81.5377V78.9499H81.4437V79.0439H81.3498V79.1378H81.2486V79.2318H81.1546V79.3258H81.0606V79.521H80.9594V79.6149H80.8655V79.7089H80.7715V79.8029H80.6703V79.8968H80.5763V79.9908H80.4823V80.0848H80.3811V80.1788H80.2872V80.2727H80.1932V80.3667H80.092V80.4607H79.998V80.5546H79.9041V80.6486H79.8029V80.7426H79.6149V80.8365H79.5137V80.9305H79.4198V81.0245H79.3258V81.1185H79.2246V81.2124H79.1306V81.3064H79.0366V81.4004H78.9354V81.4943H78.8415V81.5883H78.7475V81.6823H78.6463V81.7763H78.4584V81.8702H78.3572V81.9642H78.2632V82.0582H78.1692V82.1521H78.068V82.2461H77.9741V82.3401H77.8801V82.4341H77.7789V82.528H77.5909V82.622H77.4897V82.716H77.3958V82.8099H77.3018V82.9039H77.1066V82.9979H77.0127V83.0919H76.9115V83.1858H76.8175V83.2798H76.6223V83.3738H76.5283V83.4677H76.4344V83.5617H76.3332V83.6557H76.1452V83.7496H76.044V83.8436H75.9501V83.9376H75.8561V84.0316H75.6609V84.1255H75.5669V84.2195H75.4658V84.3135H75.2778V84.4074H75.1766V84.5014H75.0826V84.5954H74.8875V84.6893H74.7935V84.7833H74.5983V84.8773H74.5044V84.9713H74.3092V85.0652H74.2152V85.1592H74.1212V85.2532H73.9261V85.3471H73.8321V85.4411H73.6369V85.5351H73.543V85.6291H73.4418V85.723H73.2538V85.817H73.1526V85.911H72.9647V86.0049H72.7695V86.0989H72.6755V86.1929H72.4804V86.2868H72.3864V86.3808H72.1912V86.4748H71.9961V86.5688H71.9021V86.6627H71.7069V86.7567H71.519V86.8507H71.4178V86.9447H71.2298V87.0386H71.1286V87.1326H70.9407V87.2266H70.7455V87.3205H70.6516V87.4145H70.4564V87.5085H70.2612V87.6024H70.0733V87.6964H69.8781V87.7904H69.6829V87.8844H69.495V87.9783H69.3938V88.0723H69.2058V88.1663H69.0107V88.2602H68.8155V88.3542H68.6276V88.4482H68.4324V88.5422H68.2372V88.6361H68.0493V88.7301H67.8541V88.8241H67.659V88.918H67.471V89.012H67.2758V89.106H67.0807V89.1999H66.7915V89.2939H66.6036V89.3879H66.4084V89.4819H66.2132V89.5758H66.0253V89.6698H65.7362V89.7638H65.541V89.8577H65.3458V89.9517H65.1579V90.0457H64.8687V90.1397H64.5796V90.2336H64.3844V90.3276H64.0953V90.4216H63.8061V90.5155H63.611V90.6095H63.3218V90.7035H63.0327V90.7974H62.8448V90.8914H62.5556V90.9854H62.2665V91.0794H61.9773V91.1733H61.6882V91.2673H61.3991V91.3613H61.0087V91.4552H60.7196V91.5492H60.4304V91.6432H60.1413V91.7372H59.7582V91.8311H59.469V91.9251H59.0859V92.0191H58.6956V92.113H58.3125V92.207H57.8282V92.301H57.445V92.395H57.0619V92.4889H56.6716V92.5829H56.1945V92.6769H55.6162V92.7708H55.038V92.8648H54.4597V92.9588H53.8814V93.0527H53.2019V93.1467H52.2405V93.2407H51.2791V93.3347H50.3105V93.4286H48.1925V93.5226" fill="url(#paint0_linear_29993_34652)"/>
<defs>
<linearGradient id="paint0_linear_29993_34652" x1="20.9699" y1="6.2599" x2="72.09" y2="84.5159" gradientUnits="userSpaceOnUse">
<stop stop-color="#FFCF00"/>
<stop offset="1" stop-color="#FAAD19"/>
</linearGradient>
</defs>
</svg>
