<svg width="64" height="64" viewBox="0 0 64 64" fill="none" xmlns="http://www.w3.org/2000/svg">
<path d="M52.7983 28.7998H11.1984C10.7584 28.7998 10.3984 29.1598 10.3984 29.5998V34.3998C10.3984 46.3117 20.0864 55.9997 31.9984 55.9997C43.9103 55.9997 53.5983 46.3117 53.5983 34.3998V29.5998C53.5983 29.1598 53.2383 28.7998 52.7983 28.7998Z" fill="url(#paint0_linear_23543_48404)"/>
<path d="M32.8031 45.5998V55.9758C32.5391 55.9918 32.2671 55.9998 32.0031 55.9998C31.7391 55.9998 31.4671 55.9918 31.2031 55.9758V45.5998C31.2031 45.1598 31.5631 44.7998 32.0031 44.7998C32.4431 44.7998 32.8031 45.1598 32.8031 45.5998Z" fill="#8780FF"/>
<path d="M27.9984 45.0402V55.6242C27.4544 55.5282 26.9264 55.4082 26.3984 55.2562V45.0402C26.3984 44.6002 26.7584 44.2402 27.1984 44.2402C27.6384 44.2402 27.9984 44.6002 27.9984 45.0402Z" fill="#8780FF"/>
<path d="M23.2016 43.2482V54.1202C22.6576 53.8802 22.1216 53.6162 21.6016 53.3202V43.2482C21.6016 42.8082 21.9616 42.4482 22.4016 42.4482C22.8416 42.4482 23.2016 42.8082 23.2016 43.2482Z" fill="#8780FF"/>
<path d="M18.3969 39.7922V51.1601C17.8369 50.7121 17.3009 50.2321 16.7969 49.7281V39.7922C16.7969 39.3522 17.1569 38.9922 17.5969 38.9922C18.0369 38.9922 18.3969 39.3522 18.3969 39.7922Z" fill="#8780FF"/>
<path d="M37.6 45.0402V55.2562C37.072 55.4082 36.544 55.5282 36 55.6242V45.0402C36 44.6002 36.36 44.2402 36.8 44.2402C37.24 44.2402 37.6 44.6002 37.6 45.0402Z" fill="#8780FF"/>
<path d="M42.3969 43.2482V53.3202C41.8769 53.6162 41.3409 53.8802 40.7969 54.1202V43.2482C40.7969 42.8082 41.1569 42.4482 41.5969 42.4482C42.0369 42.4482 42.3969 42.8082 42.3969 43.2482Z" fill="#8780FF"/>
<path d="M47.2016 39.7922V49.7281C46.6976 50.2321 46.1616 50.7121 45.6016 51.1601V39.7922C45.6016 39.3522 45.9616 38.9922 46.4016 38.9922C46.8416 38.9922 47.2016 39.3522 47.2016 39.7922Z" fill="#8780FF"/>
<path d="M51.9984 34.9924V42.5363C51.5584 43.6403 51.0224 44.6963 50.3984 45.6963V34.9924C50.3984 34.5524 50.7584 34.1924 51.1984 34.1924C51.6384 34.1924 51.9984 34.5524 51.9984 34.9924Z" fill="#8780FF"/>
<path d="M13.6 36.592V45.696C12.976 44.696 12.44 43.64 12 42.536V36.592C12 36.152 12.36 35.792 12.8 35.792C13.24 35.792 13.6 36.152 13.6 36.592Z" fill="#8780FF"/>
<path d="M31.9984 51.1998C43.9277 51.1998 53.5983 41.5292 53.5983 29.5999C53.5983 17.6706 43.9277 8 31.9984 8C20.069 8 10.3984 17.6706 10.3984 29.5999C10.3984 41.5292 20.069 51.1998 31.9984 51.1998Z" fill="url(#paint1_linear_23543_48404)"/>
<path d="M31.9999 45.5995C40.8365 45.5995 47.9999 38.4361 47.9999 29.5995C47.9999 20.763 40.8365 13.5996 31.9999 13.5996C23.1634 13.5996 16 20.763 16 29.5995C16 38.4361 23.1634 45.5995 31.9999 45.5995Z" fill="url(#paint2_linear_23543_48404)"/>
<path d="M25.6016 27.1998C25.6016 27.6398 25.9616 27.9998 26.4016 27.9998H33.5215C33.1535 29.8238 31.5375 31.1998 29.6015 31.1998H26.4016C26.0656 31.1998 25.7616 31.4158 25.6496 31.7358C25.5376 32.0558 25.6416 32.4158 25.9056 32.6238L33.9055 39.0237C34.0495 39.1437 34.2335 39.1997 34.4015 39.1997C34.6335 39.1997 34.8655 39.0957 35.0255 38.8957C35.2975 38.5517 35.2415 38.0477 34.8975 37.7677L28.6816 32.7918H29.6015C32.4175 32.7918 34.7455 30.7038 35.1375 27.9918H39.2015C39.6415 27.9918 40.0015 27.6318 40.0015 27.1918C40.0015 26.7518 39.6415 26.3918 39.2015 26.3918H35.1375C34.9615 25.1438 34.3695 24.0318 33.5135 23.1918H39.2015C39.6415 23.1918 40.0015 22.8318 40.0015 22.3918C40.0015 21.9518 39.6415 21.5918 39.2015 21.5918H26.4016C25.9616 21.5918 25.6016 21.9518 25.6016 22.3918C25.6016 22.8318 25.9616 23.1918 26.4016 23.1918H29.6015C31.5295 23.1918 33.1455 24.5678 33.5215 26.3918H26.4016C25.9616 26.3918 25.6016 26.7518 25.6016 27.1918V27.1998Z" fill="#3025E0"/>
<defs>
<linearGradient id="paint0_linear_23543_48404" x1="53.5191" y1="28.6914" x2="3.86906" y2="44.9646" gradientUnits="userSpaceOnUse">
<stop stop-color="#0F00FF"/>
<stop offset="1" stop-color="white"/>
</linearGradient>
<linearGradient id="paint1_linear_23543_48404" x1="49.2926" y1="10.675" x2="-1.24885" y2="3.51755" gradientUnits="userSpaceOnUse">
<stop stop-color="#0F00FF"/>
<stop offset="1" stop-color="white"/>
</linearGradient>
<linearGradient id="paint2_linear_23543_48404" x1="3.69334" y1="57.906" x2="32.1012" y2="42.7033" gradientUnits="userSpaceOnUse">
<stop stop-color="#B096ED"/>
<stop offset="0.0014" stop-color="#B096ED"/>
<stop offset="0.299" stop-color="#CDBCF3"/>
<stop offset="0.5742" stop-color="#E2D7F7"/>
<stop offset="0.8165" stop-color="#EFE8F9"/>
<stop offset="1" stop-color="#F3EEFA"/>
</linearGradient>
</defs>
</svg>
