<svg width="203" height="225" viewBox="0 0 203 225" fill="none" xmlns="http://www.w3.org/2000/svg">
<path d="M198.749 97.499H3.74999C1.68749 97.499 0 99.1865 0 101.249V123.749C0 179.586 45.4123 224.999 101.25 224.999C157.087 224.999 202.499 179.586 202.499 123.749V101.249C202.499 99.1865 200.812 97.499 198.749 97.499Z" fill="url(#paint0_linear_23543_49714)"/>
<path d="M105.023 176.249V224.886C103.786 224.961 102.511 224.999 101.273 224.999C100.036 224.999 98.7609 224.961 97.5234 224.886V176.249C97.5234 174.187 99.2109 172.499 101.273 172.499C103.336 172.499 105.023 174.187 105.023 176.249Z" fill="#8780FF"/>
<path d="M82.5 173.626V223.238C79.95 222.788 77.475 222.226 75 221.513V173.626C75 171.563 76.6875 169.876 78.75 169.876C80.8125 169.876 82.5 171.563 82.5 173.626Z" fill="#8780FF"/>
<path d="M60.0156 165.226V216.188C57.4656 215.063 54.9531 213.825 52.5156 212.438V165.226C52.5156 163.163 54.2031 161.476 56.2656 161.476C58.3281 161.476 60.0156 163.163 60.0156 165.226Z" fill="#8780FF"/>
<path d="M37.4922 149.025V202.313C34.8672 200.213 32.3547 197.963 29.9922 195.6V149.025C29.9922 146.963 31.6797 145.275 33.7422 145.275C35.8047 145.275 37.4922 146.963 37.4922 149.025Z" fill="#8780FF"/>
<path d="M127.508 173.626V221.513C125.033 222.226 122.558 222.788 120.008 223.238V173.626C120.008 171.563 121.695 169.876 123.758 169.876C125.82 169.876 127.508 171.563 127.508 173.626Z" fill="#8780FF"/>
<path d="M149.992 165.226V212.438C147.555 213.825 145.042 215.063 142.492 216.188V165.226C142.492 163.163 144.18 161.476 146.242 161.476C148.305 161.476 149.992 163.163 149.992 165.226Z" fill="#8780FF"/>
<path d="M172.516 149.025V195.6C170.153 197.963 167.641 200.213 165.016 202.313V149.025C165.016 146.963 166.703 145.275 168.766 145.275C170.828 145.275 172.516 146.963 172.516 149.025Z" fill="#8780FF"/>
<path d="M195 126.526V161.889C192.937 167.064 190.425 172.014 187.5 176.701V126.526C187.5 124.464 189.187 122.776 191.25 122.776C193.312 122.776 195 124.464 195 126.526Z" fill="#8780FF"/>
<path d="M15.0078 134.025V176.7C12.0828 172.013 9.5703 167.063 7.50781 161.888V134.025C7.50781 131.963 9.19531 130.275 11.2578 130.275C13.3203 130.275 15.0078 131.963 15.0078 134.025Z" fill="#8780FF"/>
<path d="M101.25 202.499C157.168 202.499 202.499 157.168 202.499 101.25C202.499 45.331 157.168 0 101.25 0C45.331 0 0 45.331 0 101.25C0 157.168 45.331 202.499 101.25 202.499Z" fill="url(#paint1_linear_23543_49714)"/>
<path d="M101.258 176.249C142.679 176.249 176.257 142.671 176.257 101.25C176.257 59.8285 142.679 26.25 101.258 26.25C59.8363 26.25 26.2578 59.8285 26.2578 101.25C26.2578 142.671 59.8363 176.249 101.258 176.249Z" fill="url(#paint2_linear_23543_49714)"/>
<path d="M71.2656 90.0013C71.2656 92.0638 72.9531 93.7512 75.0156 93.7512H108.39C106.665 102.301 99.0905 108.751 90.0156 108.751H75.0156C73.4406 108.751 72.0156 109.764 71.4906 111.264C70.9656 112.764 71.4531 114.451 72.6906 115.426L110.19 145.426C110.865 145.989 111.728 146.251 112.515 146.251C113.603 146.251 114.69 145.764 115.44 144.826C116.715 143.214 116.453 140.851 114.84 139.539L85.7031 116.214H90.0156C103.216 116.214 114.128 106.426 115.965 93.7137H135.015C137.078 93.7137 138.765 92.0263 138.765 89.9638C138.765 87.9013 137.078 86.2138 135.015 86.2138H115.965C115.14 80.3638 112.365 75.1513 108.353 71.2138H135.015C137.078 71.2138 138.765 69.5263 138.765 67.4639C138.765 65.4014 137.078 63.7139 135.015 63.7139H75.0156C72.9531 63.7139 71.2656 65.4014 71.2656 67.4639C71.2656 69.5263 72.9531 71.2138 75.0156 71.2138H90.0156C99.053 71.2138 106.628 77.6638 108.39 86.2138H75.0156C72.9531 86.2138 71.2656 87.9013 71.2656 89.9638V90.0013Z" fill="#3025E0"/>
<defs>
<linearGradient id="paint0_linear_23543_49714" x1="202.128" y1="96.9907" x2="-30.6065" y2="173.272" gradientUnits="userSpaceOnUse">
<stop stop-color="#0F00FF"/>
<stop offset="1" stop-color="white"/>
</linearGradient>
<linearGradient id="paint1_linear_23543_49714" x1="182.316" y1="12.5389" x2="-54.5967" y2="-21.0115" gradientUnits="userSpaceOnUse">
<stop stop-color="#0F00FF"/>
<stop offset="1" stop-color="white"/>
</linearGradient>
<linearGradient id="paint2_linear_23543_49714" x1="-31.4296" y1="233.936" x2="101.732" y2="162.674" gradientUnits="userSpaceOnUse">
<stop stop-color="#B096ED"/>
<stop offset="0.0014" stop-color="#B096ED"/>
<stop offset="0.299" stop-color="#CDBCF3"/>
<stop offset="0.5742" stop-color="#E2D7F7"/>
<stop offset="0.8165" stop-color="#EFE8F9"/>
<stop offset="1" stop-color="#F3EEFA"/>
</linearGradient>
</defs>
</svg>
