<svg width="144" height="144" viewBox="0 0 144 144" fill="none" xmlns="http://www.w3.org/2000/svg">
<path d="M108.93 126H35.1016V18H93.1094C101.833 18 108.93 25.097 108.93 33.8203V126Z" fill="url(#paint0_linear_33010_27216)"/>
<path d="M108.926 33.8203C108.926 25.097 101.829 18 93.1055 18H72.0117V126H108.926V33.8203Z" fill="url(#paint1_linear_33010_27216)"/>
<path d="M71.9235 108.308C80.377 108.308 87.2299 101.455 87.2299 93.0017C87.2299 84.5482 80.377 77.6953 71.9235 77.6953C63.4701 77.6953 56.6172 84.5482 56.6172 93.0017C56.6172 101.455 63.4701 108.308 71.9235 108.308Z" fill="white"/>
<path d="M70.2262 97.6068C69.9935 97.6068 69.8383 97.5292 69.6831 97.374L65.8812 93.3394C65.5708 93.029 65.5708 92.5635 65.8812 92.2531C66.1916 91.9428 66.6571 91.9428 66.9675 92.2531L70.1486 95.6671L76.6662 88.5288C76.899 88.2184 77.4421 88.1409 77.7525 88.3736C78.0628 88.6064 78.1404 89.1495 77.9076 89.4599L77.83 89.5375L70.7694 97.2965C70.6918 97.5292 70.459 97.6068 70.2262 97.6068Z" fill="#382AD7"/>
<rect x="39.7422" y="32.5547" width="24.8906" height="3.375" rx="1.6875" fill="white"/>
<rect x="39.7422" y="51.1172" width="42.1875" height="3.375" rx="1.6875" fill="white"/>
<rect x="39.7422" y="57.8672" width="42.1875" height="3.375" rx="1.6875" fill="white"/>
<defs>
<linearGradient id="paint0_linear_33010_27216" x1="72.0156" y1="-20.6016" x2="72.0156" y2="126" gradientUnits="userSpaceOnUse">
<stop stop-color="white"/>
<stop offset="1" stop-color="#1001FF"/>
</linearGradient>
<linearGradient id="paint1_linear_33010_27216" x1="90.4688" y1="-20.6016" x2="90.4688" y2="126" gradientUnits="userSpaceOnUse">
<stop stop-color="#1001FF"/>
<stop offset="1" stop-color="white"/>
</linearGradient>
</defs>
</svg>
